<svg width="24" height="25" viewBox="0 0 24 25" fill="none" xmlns="http://www.w3.org/2000/svg">
<path fill-rule="evenodd" clip-rule="evenodd" d="M4 8.25C3.30964 8.25 2.75 8.80964 2.75 9.5V19.5C2.75 20.1904 3.30964 20.75 4 20.75H20C20.6904 20.75 21.25 20.1904 21.25 19.5V9.5C21.25 8.80964 20.6904 8.25 20 8.25H4ZM1.25 9.5C1.25 7.98122 2.48122 6.75 4 6.75H20C21.5188 6.75 22.75 7.98122 22.75 9.5V19.5C22.75 21.0188 21.5188 22.25 20 22.25H4C2.48122 22.25 1.25 21.0188 1.25 19.5V9.5Z" fill="#FF9316"/>
<path fill-rule="evenodd" clip-rule="evenodd" d="M8.05546 3.55546C8.57118 3.03973 9.27065 2.75 10 2.75H14C14.7293 2.75 15.4288 3.03973 15.9445 3.55546C16.4603 4.07118 16.75 4.77065 16.75 5.5V7.78669H15.25V5.5C15.25 5.16848 15.1183 4.85054 14.8839 4.61612C14.6495 4.3817 14.3315 4.25 14 4.25H10C9.66848 4.25 9.35054 4.3817 9.11612 4.61612C8.8817 4.85054 8.75 5.16848 8.75 5.5V7.78669H7.25V5.5C7.25 4.77065 7.53973 4.07118 8.05546 3.55546Z" fill="#FF9316"/>
<path fill-rule="evenodd" clip-rule="evenodd" d="M5.11654 12.5865C5.94508 13.0513 7.02331 13.2921 8.11264 13.2921H15.7038C16.7931 13.2921 17.8713 13.0513 18.6999 12.5865C19.5092 12.1326 20.1582 11.4064 20.1582 10.4763V8.04211H18.8404V10.4763C18.8404 10.6756 18.6897 11.0324 18.0754 11.377C17.4803 11.7108 16.6277 11.9186 15.7038 11.9186H8.11264C7.18869 11.9186 6.33609 11.7108 5.74101 11.377C5.12672 11.0324 4.97597 10.6756 4.97597 10.4763V8.04211H3.6582V10.4763C3.6582 11.4064 4.30722 12.1326 5.11654 12.5865Z" fill="#FF9316"/>
<path fill-rule="evenodd" clip-rule="evenodd" d="M9.6875 15.25C9.6875 14.8358 10.0233 14.5 10.4375 14.5H13.5625C13.9767 14.5 14.3125 14.8358 14.3125 15.25C14.3125 15.6642 13.9767 16 13.5625 16H10.4375C10.0233 16 9.6875 15.6642 9.6875 15.25Z" fill="#FF9316"/>
</svg>
