<svg width="25" height="24" viewBox="0 0 25 24" fill="none" xmlns="http://www.w3.org/2000/svg">
<path d="M21.9257 10.7256V11.2354C21.9257 11.6577 21.5834 12.0001 21.161 12.0001H20.9062L20.0742 17.8237C19.9666 18.5771 19.3213 19.1367 18.5603 19.1367H6.93961C6.17857 19.1367 5.53333 18.5771 5.42568 17.8237L4.59375 12.0001H4.33886C3.91656 12.0001 3.57422 11.6577 3.57422 11.2354V10.7256C3.57422 10.3033 3.91656 9.961 4.33886 9.961H6.48436L9.88639 5.28326C10.2176 4.82791 10.8552 4.7272 11.3106 5.05839C11.766 5.38957 11.8666 6.02719 11.5354 6.48257L9.00565 9.961H16.4943L13.9645 6.48254C13.6333 6.02719 13.734 5.38954 14.1894 5.05836C14.6447 4.72717 15.2824 4.82785 15.6136 5.28323L19.0156 9.961H21.161C21.5834 9.961 21.9257 10.3033 21.9257 10.7256ZM13.5146 16.333V12.7647C13.5146 12.3424 13.1723 12.0001 12.75 12.0001C12.3276 12.0001 11.9853 12.3424 11.9853 12.7647V16.333C11.9853 16.7554 12.3276 17.0977 12.75 17.0977C13.1723 17.0977 13.5146 16.7554 13.5146 16.333ZM17.0829 16.333V12.7647C17.0829 12.3424 16.7406 12.0001 16.3183 12.0001C15.896 12.0001 15.5537 12.3424 15.5537 12.7647V16.333C15.5537 16.7554 15.896 17.0977 16.3183 17.0977C16.7406 17.0977 17.0829 16.7554 17.0829 16.333ZM9.94626 16.333V12.7647C9.94626 12.3424 9.60392 12.0001 9.18161 12.0001C8.75931 12.0001 8.41697 12.3424 8.41697 12.7647V16.333C8.41697 16.7554 8.75931 17.0977 9.18161 17.0977C9.60392 17.0977 9.94626 16.7554 9.94626 16.333Z" fill="white"/>
</svg>
