<svg width="25" height="24" viewBox="0 0 25 24" fill="none" xmlns="http://www.w3.org/2000/svg">
<path fill-rule="evenodd" clip-rule="evenodd" d="M20.2874 17.5839C19.7596 17.7666 18.7174 18.1454 17.5189 16.118C16.3205 14.0928 14.7362 14.5633 14.7362 14.5633C14.6474 14.5787 14.5719 14.6083 14.4933 14.6348C12.7048 12.0879 7.67527 6.5408 7.23224 6.09674C6.59628 5.4618 5.52851 4.86565 4.6353 5.80173C3.79517 6.68167 4.22596 7.83008 4.86192 8.46604C5.30904 8.91316 10.8867 13.9682 13.4326 15.7505C13.3907 15.861 13.3646 15.9768 13.3551 16.0946C13.3551 19.8164 17.1617 19.6194 17.9487 19.4755C19.3523 19.2213 20.8151 17.4032 20.2874 17.5839Z" fill="white"/>
<path fill-rule="evenodd" clip-rule="evenodd" d="M7.49691 12.2124L6.64556 13.0648C6.64556 13.0648 4.28544 18.4955 4.12518 18.9344C3.99757 19.2815 4.43754 19.7215 4.74174 19.5724C5.23173 19.3305 10.6012 17 10.6012 17L11.7935 15.8036C10.3219 14.6564 8.90101 13.441 7.49691 12.2124Z" fill="white"/>
<path fill-rule="evenodd" clip-rule="evenodd" d="M14.5648 13.0234L18.9145 8.65948C19.4269 8.14703 19.4555 7.40797 18.9063 6.85979L16.8596 4.82838C16.3094 4.2802 15.4478 4.25162 14.9364 4.76305L10.9746 8.73196C12.2016 10.135 13.4228 11.55 14.5648 13.0234Z" fill="white"/>
</svg>
