<svg width="24" height="25" viewBox="0 0 24 25" fill="none" xmlns="http://www.w3.org/2000/svg">
<path fill-rule="evenodd" clip-rule="evenodd" d="M9.78887 4.78615L9.56775 5.25493H5.70098C5.12108 5.25493 4.65098 5.72503 4.65098 6.30492V20.5268C4.65098 21.1067 5.12108 21.5768 5.70098 21.5768H18.2985C18.8784 21.5768 19.3485 21.1067 19.3485 20.5268V6.30493C19.3485 5.72503 18.8784 5.25493 18.2985 5.25493H14.4575L14.2273 4.81926L14.2252 4.81541C14.2217 4.80916 14.2147 4.79698 14.2042 4.77972C14.1831 4.74511 14.1485 4.69069 14.1002 4.62304C14.0028 4.48662 13.8547 4.30308 13.6568 4.12068C13.2617 3.75643 12.7003 3.42319 11.9479 3.42319C11.2 3.42319 10.6699 3.75236 10.3068 4.10551C10.1235 4.28376 9.98878 4.46331 9.90102 4.59684C9.85755 4.66298 9.82678 4.71604 9.80835 4.74948C9.79916 4.76614 9.79314 4.77775 9.79023 4.78348L9.78887 4.78615ZM9.15647 2.92261C9.73512 2.35989 10.6566 1.77319 11.9479 1.77319C13.2346 1.77319 14.1766 2.35582 14.7751 2.90744C15.0462 3.15734 15.2535 3.40631 15.4 3.60493H18.2985C19.7896 3.60493 20.9985 4.81376 20.9985 6.30493V20.5268C20.9985 22.018 19.7896 23.2268 18.2985 23.2268H5.70098C4.20981 23.2268 3.00098 22.018 3.00098 20.5268V6.30492C3.00098 4.81375 4.20981 3.60493 5.70098 3.60493H8.57992C8.71605 3.40788 8.90646 3.16574 9.15647 2.92261ZM16.7709 10.9101C17.0859 11.2393 17.0744 11.7615 16.7452 12.0765L11.3581 17.2311L8.33363 14.2066C8.01145 13.8844 8.01145 13.362 8.33364 13.0399C8.65582 12.7177 9.17818 12.7177 9.50036 13.0399L11.3836 14.9231L15.6045 10.8844C15.9337 10.5694 16.4559 10.5809 16.7709 10.9101ZM13.3131 5.88153C13.3131 5.97957 13.3023 6.0751 13.2819 6.16701L15.0824 6.16702C15.5381 6.16702 15.9074 6.53639 15.9074 6.99202C15.9074 7.44766 15.5381 7.81702 15.0824 7.81702L8.91699 7.817C8.46136 7.81699 8.09199 7.44763 8.092 6.99199C8.092 6.53636 8.46136 6.16699 8.917 6.16699L10.7175 6.167C10.6972 6.0751 10.6864 5.97957 10.6864 5.88153C10.6864 5.1562 11.2744 4.56821 11.9997 4.56821C12.7251 4.56821 13.3131 5.1562 13.3131 5.88153Z" fill="#0B6FC5"/>
</svg>
