<svg width="18" height="19" viewBox="0 0 18 19" fill="none" xmlns="http://www.w3.org/2000/svg">
<path d="M2.93262 14.2348H12.202C12.6926 14.2348 13.1108 13.8789 13.1891 13.3945L14.6295 4.48884L15.5656 2.32721C15.7241 1.96139 16.0846 1.72461 16.4833 1.72461H17.048" stroke="#1163A9" stroke-width="1.5" stroke-linecap="round" stroke-linejoin="round"/>
<path d="M14.0635 4.35913H2.34315C1.69877 4.35913 1.2226 4.95964 1.36947 5.58705L2.86284 11.9667H10.714" stroke="#1163A9" stroke-width="1.5" stroke-linecap="round" stroke-linejoin="round"/>
<path d="M6.10794 16.2877C5.79921 15.979 5.42432 15.8246 4.98328 15.8246C4.54223 15.8246 4.16734 15.979 3.85861 16.2877C3.54987 16.5964 3.39551 16.9713 3.39551 17.4124C3.39551 17.8534 3.54987 18.2283 3.85861 18.537C4.16734 18.8458 4.54223 19.0001 4.98328 19.0001C5.42432 19.0001 5.79921 18.8458 6.10794 18.537C6.41668 18.2283 6.57104 17.8534 6.57104 17.4124C6.57104 16.9713 6.41668 16.5964 6.10794 16.2877Z" fill="#1163A9"/>
<path d="M11.4414 16.2877C11.1327 15.979 10.7578 15.8246 10.3167 15.8246C9.87568 15.8246 9.50079 15.979 9.19206 16.2877C8.88333 16.5964 8.72896 16.9713 8.72896 17.4124C8.72896 17.8534 8.88333 18.2283 9.19206 18.537C9.50079 18.8458 9.87568 19.0001 10.3167 19.0001C10.7578 19.0001 11.1327 18.8458 11.4414 18.537C11.7501 18.2283 11.9045 17.8534 11.9045 17.4124C11.9045 16.9713 11.7501 16.5964 11.4414 16.2877Z" fill="#1163A9"/>
</svg>
