<svg width="24" height="25" viewBox="0 0 24 25" fill="none" xmlns="http://www.w3.org/2000/svg">
<path fill-rule="evenodd" clip-rule="evenodd" d="M9.56775 3.96421H5.70098C5.12108 3.96421 4.65098 4.43431 4.65098 5.01421V19.9861C4.65098 20.566 5.12108 21.0361 5.70098 21.0361H18.2985C18.8784 21.0361 19.3485 20.566 19.3485 19.9861V5.01421C19.3485 4.43431 18.8784 3.96421 18.2985 3.96421H14.4575H9.56775ZM15.4 2.31421H18.2985C19.7896 2.31421 20.9985 3.52304 20.9985 5.01421V19.9861C20.9985 21.4773 19.7896 22.6861 18.2985 22.6861H5.70098C4.20981 22.6861 3.00098 21.4773 3.00098 19.9861V5.01421C3.00098 3.52304 4.20981 2.31421 5.70098 2.31421H8.57992H15.4Z" fill="#FF9316"/>
<path fill-rule="evenodd" clip-rule="evenodd" d="M12.7393 13.4338C12.7393 13.0196 12.4035 12.6838 11.9893 12.6838C10.8763 12.6838 9.70627 13.1161 8.80356 13.828C7.89806 14.5421 7.18817 15.6007 7.16095 16.8826C7.15215 17.2967 7.48073 17.6396 7.89486 17.6484C8.30898 17.6572 8.65181 17.3286 8.66061 16.9145C8.67582 16.1983 9.07456 15.5246 9.73239 15.0058C10.393 14.4849 11.241 14.1838 11.9893 14.1838C12.4035 14.1838 12.7393 13.8481 12.7393 13.4338Z" fill="#FF9316"/>
<path fill-rule="evenodd" clip-rule="evenodd" d="M11.2598 13.4338C11.2598 13.0196 11.5956 12.6838 12.0098 12.6838C13.1227 12.6838 14.2927 13.1161 15.1955 13.828C16.101 14.5421 16.8109 15.6007 16.8381 16.8826C16.8469 17.2967 16.5183 17.6396 16.1042 17.6484C15.69 17.6572 15.3472 17.3286 15.3384 16.9145C15.3232 16.1983 14.9245 15.5246 14.2666 15.0058C13.606 14.4849 12.7581 14.1838 12.0098 14.1838C11.5956 14.1838 11.2598 13.8481 11.2598 13.4338Z" fill="#FF9316"/>
<path fill-rule="evenodd" clip-rule="evenodd" d="M11.9112 12.1368C12.7315 12.1368 13.3966 11.4718 13.3966 10.6514C13.3966 9.83105 12.7315 9.16602 11.9112 9.16602C11.0908 9.16602 10.4258 9.83105 10.4258 10.6514C10.4258 11.4718 11.0908 12.1368 11.9112 12.1368ZM11.9112 13.6368C13.56 13.6368 14.8966 12.3002 14.8966 10.6514C14.8966 9.00262 13.56 7.66602 11.9112 7.66602C10.2624 7.66602 8.92578 9.00262 8.92578 10.6514C8.92578 12.3002 10.2624 13.6368 11.9112 13.6368Z" fill="#FF9316"/>
<path fill-rule="evenodd" clip-rule="evenodd" d="M16.8096 17.0752C16.8096 17.4894 16.4937 17.8252 16.1041 17.8252H7.90038C7.51078 17.8252 7.19495 17.4894 7.19495 17.0752C7.19495 16.661 7.51078 16.3252 7.90038 16.3252H16.1041C16.4937 16.3252 16.8096 16.661 16.8096 17.0752Z" fill="#FF9316"/>
</svg>
