<svg width="20" height="20" viewBox="0 0 20 20" fill="none" xmlns="http://www.w3.org/2000/svg">
<path fill-rule="evenodd" clip-rule="evenodd" d="M17.9817 3.69662C18.2263 3.45446 18.5076 3.33337 18.8257 3.33337C19.1437 3.33337 19.4251 3.45446 19.6697 3.69662C19.8899 3.91457 20 4.187 20 4.51393C20 4.84085 19.8899 5.11329 19.6697 5.33124L7.9633 16.9915C7.93884 17.0157 7.91437 17.0399 7.88991 17.0641C7.86544 17.0884 7.84098 17.1126 7.81651 17.1368C7.59633 17.379 7.3211 17.5 6.99083 17.5C6.66055 17.5 6.38532 17.379 6.16514 17.1368L0.330275 11.3975C0.110091 11.1795 0 10.9071 0 10.5802C0 10.2532 0.110091 9.98081 0.330275 9.76286C0.574925 9.52069 0.856268 9.39961 1.17431 9.39961C1.49236 9.39961 1.7737 9.52069 2.01835 9.76286L6.97248 14.6667L17.9817 3.69662Z" fill="#D8DEEB"/>
</svg>
