<svg width="25" height="24" viewBox="0 0 25 24" fill="none" xmlns="http://www.w3.org/2000/svg">
<path d="M10.9734 13.6786H17.5607C18.0618 13.6786 18.5425 13.8778 18.8969 14.2323C19.2513 14.5868 19.4504 15.0677 19.4504 15.569V16.3294C19.4504 16.7834 19.3523 17.232 19.1628 17.6446C18.9734 18.0571 18.697 18.4239 18.3527 18.7196C17.0374 19.8488 15.1561 20.4 12.7288 20.4H12.5785C12.705 20.1448 12.7548 19.8584 12.7218 19.5756C12.6889 19.2927 12.5746 19.0254 12.3928 18.8062L12.2996 18.7054L10.4267 16.8368C10.981 15.8832 11.1747 14.7622 10.9726 13.6778L10.9734 13.6786ZM6.42966 10.738C7.1475 10.7382 7.85044 10.9429 8.45625 11.3281C9.06206 11.7133 9.54568 12.2631 9.85053 12.9132C10.1554 13.5633 10.2689 14.2868 10.1777 14.999C10.0865 15.7113 9.79444 16.3828 9.33566 16.9351L11.7067 19.2994C11.8199 19.4115 11.8865 19.5625 11.893 19.7218C11.8994 19.8811 11.8453 20.0369 11.7414 20.1578C11.6375 20.2788 11.4917 20.3559 11.3333 20.3735C11.1749 20.3911 11.0157 20.3481 10.8878 20.2529L10.8164 20.1916L8.3782 17.7585C7.87898 18.0589 7.3171 18.2398 6.73643 18.2871C6.15576 18.3344 5.57203 18.2467 5.03083 18.031C4.48962 17.8153 4.0056 17.4773 3.61656 17.0435C3.22753 16.6097 2.94401 16.0918 2.78815 15.5302C2.63229 14.9687 2.60832 14.3787 2.7181 13.8064C2.82788 13.234 3.06844 12.6948 3.42099 12.2309C3.77355 11.7669 4.22855 11.3908 4.75047 11.1318C5.27238 10.8728 5.84708 10.7381 6.42966 10.738V10.738ZM6.42966 11.9983C5.76141 11.9983 5.12053 12.2638 4.648 12.7365C4.17547 13.2092 3.91001 13.8503 3.91001 14.5188C3.91001 15.1873 4.17547 15.8284 4.648 16.3011C5.12053 16.7738 5.76141 17.0393 6.42966 17.0393C7.09792 17.0393 7.7388 16.7738 8.21133 16.3011C8.68386 15.8284 8.94932 15.1873 8.94932 14.5188C8.94932 13.8503 8.68386 13.2092 8.21133 12.7365C7.7388 12.2638 7.09792 11.9983 6.42966 11.9983ZM12.7288 3.59998C13.8426 3.59998 14.9107 4.04256 15.6982 4.83037C16.4858 5.61818 16.9282 6.68668 16.9282 7.80082C16.9282 8.91495 16.4858 9.98345 15.6982 10.7713C14.9107 11.5591 13.8426 12.0017 12.7288 12.0017C11.615 12.0017 10.5469 11.5591 9.75936 10.7713C8.97181 9.98345 8.52938 8.91495 8.52938 7.80082C8.52938 6.68668 8.97181 5.61818 9.75936 4.83037C10.5469 4.04256 11.615 3.59998 12.7288 3.59998V3.59998Z" fill="white"/>
</svg>
