<svg width="18" height="18" viewBox="0 0 18 18" fill="none" xmlns="http://www.w3.org/2000/svg">
<path fill-rule="evenodd" clip-rule="evenodd" d="M16.1835 3.32692C16.4037 3.10897 16.6569 3 16.9431 3C17.2294 3 17.4826 3.10897 17.7028 3.32692C17.9009 3.52308 18 3.76827 18 4.0625C18 4.35673 17.9009 4.60192 17.7028 4.79808L7.16697 15.2923C7.14495 15.3141 7.12294 15.3359 7.10092 15.3577C7.0789 15.3795 7.05688 15.4013 7.03486 15.4231C6.8367 15.641 6.58899 15.75 6.29174 15.75C5.99449 15.75 5.74679 15.641 5.54862 15.4231L0.297248 10.2577C0.0990816 10.0615 0 9.81635 0 9.52212C0 9.22788 0.0990816 8.98269 0.297248 8.78654C0.517432 8.56859 0.770641 8.45962 1.05688 8.45962C1.34312 8.45962 1.59633 8.56859 1.81651 8.78654L6.27523 13.2L16.1835 3.32692Z" fill="white"/>
</svg>
