<svg width="24" height="25" viewBox="0 0 24 25" fill="none" xmlns="http://www.w3.org/2000/svg">
<path fill-rule="evenodd" clip-rule="evenodd" d="M15.9689 2.12873L20.9272 7.08704C21.9096 8.06946 21.9102 9.6621 20.9284 10.6452C20.4201 11.1543 19.7277 11.4136 19.0298 11.381L18.6357 11.7746L21.6449 14.7839C22.5518 15.6907 22.5518 17.161 21.6449 18.0679C20.738 18.9748 19.2676 18.9747 18.3608 18.0677L15.3517 15.0582L15.0162 15.3937C15.0818 16.0586 14.8481 16.7255 14.3674 17.2058L14.0347 17.5383C13.1559 18.4165 11.7317 18.4162 10.8533 17.5378L5.7304 12.4149C4.73415 11.4186 4.73444 9.80333 5.73103 8.80743C6.24 8.29883 6.93334 8.03463 7.63687 8.0631L11.6752 4.02538C11.6428 3.32862 11.9014 2.63736 12.4091 2.12936C13.3918 1.14593 14.9858 1.14565 15.9689 2.12873ZM13.3166 4.50546L8.14086 9.68035L7.78815 9.59233C7.43044 9.50306 7.05211 9.60786 6.79132 9.86847C6.38086 10.2786 6.38074 10.9439 6.79106 11.3542L11.9139 16.4771C12.2068 16.7699 12.6815 16.77 12.9744 16.4773L13.3072 16.1448C13.4936 15.9585 13.5685 15.688 13.5046 15.4324L13.3749 14.9136L15.3518 12.9367L19.4215 17.0072C19.7426 17.3283 20.2632 17.3283 20.5843 17.0072C20.9054 16.6862 20.9054 16.1656 20.5843 15.8445L16.5138 11.774L18.5506 9.73956L18.8253 9.83129C19.1911 9.95345 19.5945 9.85819 19.867 9.58531C20.2637 9.1881 20.2635 8.54462 19.8665 8.1477L14.9082 3.18939C14.5111 2.79224 13.8671 2.79235 13.4701 3.18964C13.1981 3.46188 13.1031 3.8644 13.2247 4.22955L13.3166 4.50546Z" fill="#D75DC3"/>
<path fill-rule="evenodd" clip-rule="evenodd" d="M12.1697 4.54437C12.5015 4.21082 12.9663 4.13516 13.2078 4.37538L18.6549 9.79379C18.8964 10.034 18.8232 10.4991 18.4914 10.8327C18.1596 11.1662 17.6948 11.2419 17.4534 11.0017L12.0062 5.58326C11.7648 5.34304 11.838 4.87792 12.1697 4.54437Z" fill="#D75DC3"/>
<path fill-rule="evenodd" clip-rule="evenodd" d="M8.25178 8.61834C8.58357 8.2848 9.0483 8.20914 9.28979 8.44935L14.7369 13.8678C14.9784 14.108 14.9052 14.5731 14.5734 14.9067C14.2416 15.2402 13.7769 15.3159 13.5354 15.0756L8.08828 9.65723C7.84679 9.41702 7.91999 8.95189 8.25178 8.61834Z" fill="#D75DC3"/>
<path d="M1.63965 22.1453C1.63965 21.6748 2.02104 21.2935 2.4915 21.2935H13.6756C14.146 21.2935 14.5274 21.6748 14.5274 22.1453C14.5274 22.6158 14.146 22.9972 13.6756 22.9972H2.4915C2.02104 22.9972 1.63965 22.6158 1.63965 22.1453Z" fill="#D75DC3"/>
</svg>
