<svg width="24" height="25" viewBox="0 0 24 25" fill="none" xmlns="http://www.w3.org/2000/svg">
<path d="M15.4414 6.89795H12.8644C12.6244 6.89795 12.3934 6.98545 12.2164 7.14295L9.26739 9.76795C9.26439 9.77087 9.26139 9.7767 9.25839 9.77962C8.76039 10.2346 8.76939 10.9609 9.19539 11.413C9.57639 11.8184 10.3774 11.9263 10.8784 11.4917C10.8814 11.4888 10.8874 11.4888 10.8904 11.4859L13.2874 9.35087C13.4824 9.17878 13.7884 9.19045 13.9654 9.38003C14.1454 9.56962 14.1304 9.8642 13.9354 10.0392L13.1524 10.7363L17.5204 14.1838C17.6074 14.2538 17.6854 14.3296 17.7574 14.4084V8.76462L16.1194 7.17212C15.9424 6.99712 15.6964 6.89795 15.4414 6.89795ZM18.7204 8.77045V15.3009C18.7204 15.8171 19.1494 16.2342 19.6804 16.2342H21.6004V8.77045H18.7204ZM20.1604 15.3009C19.8964 15.3009 19.6804 15.0909 19.6804 14.8342C19.6804 14.5775 19.8964 14.3675 20.1604 14.3675C20.4244 14.3675 20.6404 14.5775 20.6404 14.8342C20.6404 15.0909 20.4244 15.3009 20.1604 15.3009ZM2.40039 16.2313H4.32039C4.85139 16.2313 5.28039 15.8142 5.28039 15.298V8.77045H2.40039V16.2313ZM3.84039 14.3675C4.10439 14.3675 4.32039 14.5775 4.32039 14.8342C4.32039 15.0909 4.10439 15.3009 3.84039 15.3009C3.57639 15.3009 3.36039 15.0909 3.36039 14.8342C3.36039 14.5746 3.57639 14.3675 3.84039 14.3675ZM16.9174 14.91L12.4384 11.375L11.5384 12.1771C10.6474 12.9675 9.28239 12.8917 8.48739 12.0488C7.68039 11.1913 7.74339 9.8642 8.61939 9.08253L11.0734 6.89795H8.55939C8.30439 6.89795 8.06139 6.99712 7.88139 7.17212L6.24039 8.76462V15.295H6.78939L9.50439 17.6838C10.3264 18.3342 11.5354 18.2117 12.2044 17.4125L12.2104 17.4067L12.7474 17.8588C13.2244 18.238 13.9294 18.165 14.3164 17.7013L15.2584 16.5755L15.4204 16.7038C15.8314 17.0275 16.4374 16.9692 16.7704 16.5667L17.0554 16.2255C17.3914 15.823 17.3284 15.2367 16.9174 14.91Z" fill="#D75DC3"/>
</svg>
