<svg width="24" height="25" viewBox="0 0 24 25" fill="none" xmlns="http://www.w3.org/2000/svg">
<path fill-rule="evenodd" clip-rule="evenodd" d="M11.3835 8.13259L15.3195 4.2239C16.404 3.16528 18.0565 3.33571 19.0202 4.29466L19.0214 4.29583L20.6192 5.88174C21.1032 6.36478 21.4009 7.01155 21.3952 7.72136C21.3897 8.40504 21.0898 9.07933 20.5917 9.54753L15.9646 14.0966L16.2401 14.4552C17.1834 14.537 17.8471 14.9085 18.3505 15.4119C18.7488 15.8101 19.1442 16.8834 19.675 17.0457C20.3148 17.2413 20.7193 16.9105 21.1961 17.5532C22.4372 19.2259 19.6699 21.0629 18.3909 21.3098C17.0127 21.5757 15.6742 21.3319 14.6594 20.6314C13.7256 19.9868 13.1083 18.9812 13.0026 17.755L12.3172 17.1771C11.9171 17.6854 11.4353 18.143 10.9975 18.619C10.8485 18.781 10.6673 18.91 10.4654 18.9976L5.60567 21.3098C4.59589 21.8045 3.7355 21.2146 3.42151 20.8942C3.07619 20.5419 2.617 19.7712 2.95397 18.8546L5.30819 13.8554C5.38057 13.6889 5.48121 13.5361 5.60566 13.4039L6.59554 12.3521L3.74955 9.9252C2.14177 8.56938 2.06164 6.1198 3.57738 4.66181C5.10001 3.19718 7.55779 3.38164 8.84476 5.05712L11.3835 8.13259ZM12.3344 9.45119L16.4096 5.36034C16.8086 4.96134 17.4807 4.98364 17.91 5.41131L19.5068 6.99619C19.9353 7.42387 19.913 8.00048 19.5132 8.40029L14.991 12.9169L12.3344 9.45119ZM4.76464 8.72147C3.8712 7.96804 3.82668 6.60683 4.66896 5.79663C5.51508 4.98274 6.88086 5.08524 7.59602 6.0163L15.4511 16.013H15.8391C16.5751 16.013 16.9555 16.2436 17.2371 16.5253C17.6253 16.9135 17.875 17.4186 18.2056 17.8525C18.693 18.4923 19.3649 18.6388 19.9095 18.6631C19.5061 19.23 18.9148 19.605 18.0925 19.7637C17.0681 19.9614 16.1726 19.7626 15.554 19.3356C14.9491 18.918 14.561 18.2534 14.561 17.3754V17.0095C11.2892 14.2504 8.02624 11.4943 4.76464 8.72147ZM7.80106 13.3686L6.75232 14.483L4.43186 19.398C4.33231 19.6688 4.67557 20.012 4.9129 19.8958L9.83845 17.5532L11.0799 16.2032L7.80106 13.3686Z" fill="#0B6FC5"/>
<path fill-rule="evenodd" clip-rule="evenodd" d="M15.8997 6.66287C16.1924 6.36979 16.662 6.36421 16.9486 6.65041L18.2258 7.92599C18.5124 8.21219 18.5074 8.68179 18.2147 8.97488C17.922 9.26796 17.4524 9.27354 17.1658 8.98734L15.8886 7.71176C15.602 7.42556 15.607 6.95596 15.8997 6.66287Z" fill="#0B6FC5"/>
</svg>
