<svg width="25" height="24" viewBox="0 0 25 24" fill="none" xmlns="http://www.w3.org/2000/svg">
<path d="M19.7012 7.13187H16.541V6.52336C16.5404 6.03936 16.3405 5.57534 15.9851 5.2331C15.6297 4.89087 15.1478 4.69836 14.6452 4.69781H10.8537C10.3511 4.69836 9.86923 4.89087 9.51383 5.2331C9.15843 5.57534 8.95852 6.03936 8.95796 6.52336V7.13187H5.79899C5.46392 7.13224 5.14268 7.26057 4.90574 7.48873C4.66881 7.71689 4.53553 8.02624 4.53516 8.3489V18.0851C4.53553 18.4078 4.66881 18.7171 4.90574 18.9453C5.14268 19.1735 5.46392 19.3018 5.79899 19.3022H19.7012C20.0363 19.3018 20.3575 19.1735 20.5945 18.9453C20.8314 18.7171 20.9647 18.4078 20.965 18.0851V8.3489C20.9647 8.02624 20.8314 7.71689 20.5945 7.48873C20.3575 7.26057 20.0363 7.13224 19.7012 7.13187ZM10.2218 10.1744C10.2218 10.3358 10.1552 10.4906 10.0367 10.6047C9.9182 10.7188 9.75747 10.783 9.58987 10.783C9.42228 10.783 9.26155 10.7188 9.14304 10.6047C9.02453 10.4906 8.95796 10.3358 8.95796 10.1744V8.95742C8.95796 8.79603 9.02453 8.64125 9.14304 8.52713C9.26155 8.41301 9.42228 8.3489 9.58987 8.3489C9.75747 8.3489 9.9182 8.41301 10.0367 8.52713C10.1552 8.64125 10.2218 8.79603 10.2218 8.95742V10.1744ZM10.2218 6.52336C10.222 6.36203 10.2886 6.20737 10.4071 6.0933C10.5256 5.97922 10.6862 5.91505 10.8537 5.91484H14.6452C14.8128 5.91505 14.9734 5.97922 15.0918 6.0933C15.2103 6.20737 15.2769 6.36203 15.2771 6.52336V7.13187H10.2218V6.52336ZM16.541 10.1744C16.541 10.3358 16.4744 10.4906 16.3559 10.6047C16.2374 10.7188 16.0767 10.783 15.9091 10.783C15.7415 10.783 15.5807 10.7188 15.4622 10.6047C15.3437 10.4906 15.2771 10.3358 15.2771 10.1744V8.95742C15.2771 8.79603 15.3437 8.64125 15.4622 8.52713C15.5807 8.41301 15.7415 8.3489 15.9091 8.3489C16.0767 8.3489 16.2374 8.41301 16.3559 8.52713C16.4744 8.64125 16.541 8.79603 16.541 8.95742V10.1744Z" fill="white"/>
</svg>
