<svg width="26" height="26" viewBox="0 0 26 26" fill="none" xmlns="http://www.w3.org/2000/svg">
<path fill-rule="evenodd" clip-rule="evenodd" d="M11.0569 16.3156L11.059 16.3172C11.38 16.562 11.745 16.677 12.1233 16.677C12.62 16.677 13.098 16.4664 13.4387 16.0707L13.4394 16.0698L17.5578 11.3253L17.5603 11.3224C17.954 10.8607 17.915 10.143 17.4389 9.73964C16.9765 9.34786 16.2583 9.38609 15.8535 9.85912L12.0483 14.249L10.0812 12.7388L10.0794 12.7374C9.58839 12.3645 8.88582 12.457 8.51048 12.9481C8.13644 13.4375 8.22893 14.1375 8.72027 14.5119L11.0569 16.3156Z" fill="#7CC076"/>
<path d="M13.0001 21C8.58176 21 5 17.4183 5 13H1C1 19.6274 6.37266 25 13.0001 25V21ZM21.0001 13C21.0001 17.4183 17.4184 21 13.0001 21V25C19.6275 25 25.0001 19.6274 25.0001 13H21.0001ZM13.0001 5C17.4184 5 21.0001 8.58174 21.0001 13H25.0001C25.0001 6.37257 19.6275 1 13.0001 1V5ZM13.0001 1C6.37266 1 1 6.37257 1 13H5C5 8.58174 8.58176 5 13.0001 5V1Z" fill="#7CC076"/>
</svg>
