<svg width="24" height="25" viewBox="0 0 24 25" fill="none" xmlns="http://www.w3.org/2000/svg">
<path fill-rule="evenodd" clip-rule="evenodd" d="M15.151 5.713C14.86 5.30263 14.2926 5.20356 13.8798 5.49106C13.4729 5.77439 13.3652 6.32991 13.6367 6.74477L16.0138 10.3778H11.5537C11.1357 10.3778 10.7969 10.0389 10.7969 9.62089C10.7969 9.20288 11.1357 8.86402 11.5537 8.86402H13.2144L12.37 7.57358C11.6501 6.47341 11.9358 5.00024 13.0147 4.24888C14.1095 3.48647 15.6142 3.74917 16.3858 4.83743L19.2409 8.86402H20.5541C21.7321 8.86402 22.6871 9.81899 22.6871 10.997V11.7903C22.6871 12.6055 22.2233 13.3437 21.5018 13.7012L20.8681 18.7755C20.6651 20.1607 19.4769 21.1875 18.0768 21.1875H11.5537C11.1357 21.1875 10.7969 20.8486 10.7969 20.4306C10.7969 20.0126 11.1357 19.6738 11.5537 19.6738H18.0768C18.7256 19.6738 19.2763 19.1979 19.3703 18.556L20.1295 12.6256L20.783 12.3657C21.0187 12.2719 21.1734 12.0439 21.1734 11.7903V10.997C21.1734 10.655 20.8961 10.3778 20.5541 10.3778H18.4586L15.151 5.713Z" fill="#FF5A50"/>
<path fill-rule="evenodd" clip-rule="evenodd" d="M8.84901 5.713C9.13999 5.30263 9.70739 5.20356 10.1202 5.49106C10.5271 5.77439 10.6348 6.32991 10.3633 6.74477L7.98619 10.3778H11.6963C12.1143 10.3778 12.4531 10.0389 12.4531 9.62089C12.4531 9.20288 12.1143 8.86402 11.6963 8.86402H10.7856L11.63 7.57358C12.3499 6.47341 12.0642 5.00024 10.9853 4.24888C9.89054 3.48647 8.38585 3.74917 7.6142 4.83743L4.75907 8.86402H3.44586C2.26785 8.86402 1.31288 9.81899 1.31288 10.997V11.7085C1.31288 12.5175 1.76871 13.2448 2.46996 13.6053L3.12882 18.7818C3.33458 20.1642 4.5215 21.1875 5.91912 21.1875H11.6963C12.1143 21.1875 12.4531 20.8486 12.4531 20.4306C12.4531 20.0126 12.1143 19.6738 11.6963 19.6738H5.91912C5.27144 19.6738 4.72141 19.1995 4.62605 18.5589L3.83226 12.4759L3.2632 12.3002C3.00365 12.2201 2.82661 11.9802 2.82661 11.7085V10.997C2.82661 10.655 3.10386 10.3778 3.44586 10.3778H5.54139L8.84901 5.713Z" fill="#FF5A50"/>
<path fill-rule="evenodd" clip-rule="evenodd" d="M15.6533 12.322C16.0891 12.322 16.4424 12.6929 16.4424 13.1505L16.4424 16.7435C16.4424 17.2011 16.0891 17.572 15.6533 17.572C15.2175 17.572 14.8642 17.2011 14.8642 16.7435L14.8642 13.1505C14.8642 12.6929 15.2175 12.322 15.6533 12.322Z" fill="#FF5A50"/>
<path fill-rule="evenodd" clip-rule="evenodd" d="M12 12.322C12.4358 12.322 12.7891 12.6929 12.7891 13.1505L12.7891 16.7435C12.7891 17.2011 12.4358 17.572 12 17.572C11.5642 17.572 11.2109 17.2011 11.2109 16.7435L11.2109 13.1505C11.2109 12.6929 11.5642 12.322 12 12.322Z" fill="#FF5A50"/>
<path fill-rule="evenodd" clip-rule="evenodd" d="M8.34667 12.322C8.78246 12.322 9.13574 12.6929 9.13574 13.1505L9.13574 16.7435C9.13574 17.2011 8.78246 17.572 8.34667 17.572C7.91087 17.572 7.55759 17.2011 7.55759 16.7435L7.55759 13.1505C7.55759 12.6929 7.91087 12.322 8.34667 12.322Z" fill="#FF5A50"/>
</svg>
