<svg width="25" height="24" viewBox="0 0 25 24" fill="none" xmlns="http://www.w3.org/2000/svg">
<path fill-rule="evenodd" clip-rule="evenodd" d="M20.1982 3.08231C20.1413 2.94083 20.0322 2.82669 19.8934 2.76365C19.7545 2.70061 19.5968 2.69351 19.4529 2.74384C19.3089 2.79416 19.19 2.89804 19.1207 3.03385C19.0514 3.16966 19.0371 3.32696 19.0809 3.47301C20.3998 5.66545 20.1433 7.0608 18.7666 8.10659L18.2104 7.30952C18.0234 7.0422 17.6052 6.81992 17.2801 6.816L14.1584 6.82971C13.7771 6.84123 13.406 6.95558 13.0843 7.16068L3.88566 13.6107C3.6717 13.7612 3.52611 13.9904 3.48078 14.2481C3.43545 14.5058 3.49407 14.7709 3.64379 14.9855L7.824 20.9664C8.13734 21.412 8.63772 21.3581 9.08423 21.0467L18.2828 14.5957C18.5472 14.4087 18.8527 14.0053 18.9604 13.6968L19.9377 10.6173C20.0454 10.3098 19.9798 9.84075 19.7928 9.57343L19.454 9.08775C21.3027 7.67084 21.5014 5.26765 20.1982 3.08231ZM17.8765 11.2665C17.707 11.3851 17.5158 11.4692 17.3139 11.5139C17.1119 11.5586 16.9031 11.5631 16.6994 11.527C16.4957 11.491 16.3011 11.4152 16.1267 11.304C15.9523 11.1928 15.8016 11.0482 15.6831 10.8787C15.4431 10.5356 15.349 10.1114 15.4216 9.69906C15.4941 9.28673 15.7272 8.92002 16.0698 8.67942C16.3384 8.49123 16.6591 8.39167 16.9871 8.39466C17.315 8.39764 17.6339 8.50302 17.899 8.69607C17.6327 8.85665 17.4495 8.95066 17.4153 8.96535C17.2939 9.02322 17.1958 9.12061 17.137 9.24155C17.0782 9.3625 17.0622 9.49982 17.0917 9.63102C17.1212 9.76223 17.1943 9.87953 17.2992 9.96371C17.4041 10.0479 17.5344 10.094 17.6689 10.0944C17.7531 10.0944 17.8393 10.0748 17.9205 10.0366C18.1105 9.9465 18.3142 9.83977 18.5267 9.71345C18.5755 10.0073 18.5404 10.3089 18.4254 10.5837C18.3104 10.8584 18.1201 11.0951 17.8765 11.2665ZM10.9773 10.9682C11.346 10.7019 11.8608 10.7849 12.1271 11.1536L14.0358 13.7964C14.3021 14.1651 14.2191 14.6798 13.8504 14.9462C13.4817 15.2125 12.9669 15.1294 12.7006 14.7607L10.7918 12.118C10.5255 11.7493 10.6086 11.2345 10.9773 10.9682ZM9.25435 13.1425C8.98804 12.7738 8.47326 12.6908 8.10455 12.9571C7.73584 13.2234 7.65282 13.7382 7.91913 14.1069L9.82785 16.7496C10.0942 17.1183 10.6089 17.2013 10.9777 16.935C11.3464 16.6687 11.4294 16.1539 11.1631 15.7852L9.25435 13.1425Z" fill="white"/>
</svg>
