<svg width="25" height="24" viewBox="0 0 25 24" fill="none" xmlns="http://www.w3.org/2000/svg">
<path d="M18.4478 5.42268H14.8142C14.669 4.99098 14.3919 4.61576 14.022 4.34996C13.6521 4.08415 13.2081 3.94116 12.7526 3.94116C12.2972 3.94116 11.8532 4.08415 11.4833 4.34996C11.1134 4.61576 10.8363 4.99098 10.6911 5.42268H7.19879C7.0752 5.4048 6.94922 5.41334 6.82917 5.44773C6.70912 5.48212 6.59773 5.54157 6.50234 5.62217C6.40696 5.70277 6.32975 5.80268 6.27582 5.91531C6.22189 6.02794 6.19245 6.15072 6.18945 6.27557V19.2051C6.19011 19.3178 6.21296 19.4292 6.25669 19.5331C6.30041 19.6369 6.36416 19.7311 6.4443 19.8103C6.52444 19.8895 6.61939 19.9521 6.72373 19.9946C6.82807 20.0371 6.93977 20.0587 7.05243 20.058H18.4478C18.5605 20.0587 18.6722 20.0371 18.7765 19.9946C18.8808 19.9521 18.9758 19.8895 19.0559 19.8103C19.1361 19.7311 19.1998 19.6369 19.2435 19.5331C19.2873 19.4292 19.3101 19.3178 19.3108 19.2051V6.27557C19.3101 6.1629 19.2873 6.05147 19.2435 5.94763C19.1998 5.84379 19.1361 5.74959 19.0559 5.67039C18.9758 5.59119 18.8808 5.52855 18.7765 5.48605C18.6722 5.44355 18.5605 5.42201 18.4478 5.42268V5.42268ZM9.36381 6.93668C9.36381 6.80283 9.41698 6.67447 9.51162 6.57983C9.60626 6.48518 9.73463 6.43201 9.86847 6.43201H11.6045V6.11407C11.6045 5.80422 11.7276 5.50706 11.9467 5.28796C12.1658 5.06886 12.463 4.94577 12.7728 4.94577C13.0827 4.94577 13.3798 5.06886 13.5989 5.28796C13.818 5.50706 13.9411 5.80422 13.9411 6.11407V6.45725H15.6772C15.811 6.45725 15.9394 6.51042 16.034 6.60506C16.1287 6.6997 16.1818 6.82807 16.1818 6.96191V7.87031H9.34362L9.36381 6.93668ZM16.6916 11.5948L12.089 16.1973L9.44455 13.5529C9.31071 13.419 9.23551 13.2375 9.23551 13.0482C9.23551 12.8589 9.31071 12.6774 9.44455 12.5435C9.5784 12.4097 9.75993 12.3345 9.94922 12.3345C10.1385 12.3345 10.32 12.4097 10.4539 12.5435L12.0991 14.1887L15.7024 10.5854C15.8363 10.4516 16.0178 10.3764 16.2071 10.3764C16.3964 10.3764 16.5779 10.4516 16.7117 10.5854C16.8456 10.7193 16.9208 10.9008 16.9208 11.0901C16.9208 11.2794 16.8456 11.4609 16.7117 11.5948H16.6916Z" fill="white"/>
</svg>
