<svg width="18" height="18" viewBox="0 0 18 18" fill="none" xmlns="http://www.w3.org/2000/svg">
<path d="M16.7234 2H1.5C1.22386 2 1 2.22386 1 2.5V15.9208C1 16.1969 1.22386 16.4208 1.5 16.4208H16.7234C16.9995 16.4208 17.2234 16.1969 17.2234 15.9208V12.203C16.5497 12.0755 14.6442 11.2834 14.6442 9.18578C14.6442 7.0882 16.326 6.37582 17.2234 6.19577V2.5C17.2234 2.22386 16.9995 2 16.7234 2Z" stroke="#1163A9" stroke-width="1.5"/>
<circle cx="6.86151" cy="6.97308" r="1.35272" fill="#1163A9"/>
<circle cx="6.86151" cy="11.5405" r="1.35272" fill="#1163A9"/>
<path fill-rule="evenodd" clip-rule="evenodd" d="M5.50879 2.40576C5.50879 2.40578 5.50879 2.40581 5.50879 2.40583C5.50879 3.15291 6.11442 3.75854 6.86151 3.75854C7.60859 3.75854 8.21422 3.15291 8.21422 2.40583C8.21422 2.40581 8.21422 2.40578 8.21422 2.40576H5.50879Z" fill="#1163A9"/>
<path fill-rule="evenodd" clip-rule="evenodd" d="M8.21422 16.1079C8.21422 16.1079 8.21422 16.1079 8.21422 16.1078C8.21422 15.3608 7.60859 14.7551 6.86151 14.7551C6.11442 14.7551 5.50879 15.3608 5.50879 16.1078C5.50879 16.1079 5.50879 16.1079 5.50879 16.1079H8.21422Z" fill="#1163A9"/>
</svg>
