<svg width="24" height="25" viewBox="0 0 24 25" fill="none" xmlns="http://www.w3.org/2000/svg">
<path fill-rule="evenodd" clip-rule="evenodd" d="M17.4886 7.40878L16.7387 6.72857C16.6758 6.66526 16.5953 6.60865 16.5054 6.56146C16.2881 6.44739 16.0156 6.38832 15.8034 6.42243L12.931 6.93275C12.5817 7.00416 12.2581 7.16863 11.9946 7.40878L4.55241 14.8148C4.37939 14.9876 4.28187 15.2218 4.28121 15.4663C4.28055 15.7109 4.3768 15.9457 4.54888 16.1193L9.96203 21.5707C10.3216 21.931 10.7738 21.8016 11.1353 21.4437L18.5773 14.0368C18.791 13.8224 19.008 13.4022 19.058 13.101L19.4669 10.1094C19.5171 9.80905 19.3819 9.3876 19.167 9.17126L18.4285 8.4289C19.864 6.87363 19.5535 3.61531 17.74 2.35528C17.687 2.31841 17.6274 2.29078 17.5637 2.2742C17.4258 2.23828 17.2794 2.2569 17.1549 2.32618C17.0304 2.39547 16.9374 2.51009 16.8952 2.6462C16.8531 2.78231 16.8651 2.92942 16.9286 3.05694C18.4926 4.86556 18.5896 6.22627 17.4886 7.40878ZM20.9925 10.3344C21.061 9.88867 20.9892 9.46453 20.885 9.13885C20.842 9.0047 20.4359 8.51142 20.362 8.36577C21.5184 6.24169 20.7011 3.46536 19.1223 1.58192C18.838 1.18881 18.4249 0.905088 17.9524 0.781996C17.4305 0.646031 16.8763 0.716517 16.405 0.978785C15.9338 1.24105 15.5818 1.67491 15.4222 2.19011C15.2627 2.70532 15.308 3.26218 15.5486 3.74486C15.7606 4.17027 16.1399 4.49095 16.376 4.90963C16.1259 4.86659 15.8466 4.85368 15.5587 4.89997L15.5461 4.90198L12.6417 5.418L12.6222 5.42199C12.0006 5.54904 11.4249 5.84171 10.956 6.26904L10.9309 6.29186L3.46471 13.7218L3.46287 13.7236C3.00119 14.1846 2.74098 14.8098 2.73921 15.4622C2.73745 16.1146 2.99427 16.7411 3.45345 17.2046L8.86736 22.6567L8.87055 22.6599C9.38688 23.1773 10.0803 23.4114 10.7882 23.2997C11.4152 23.2008 11.8983 22.8582 12.2202 22.5395L19.6651 15.1297L19.6696 15.1253C19.9235 14.8704 20.1171 14.5655 20.2502 14.3069C20.3832 14.0484 20.5197 13.7118 20.5792 13.3536L20.5828 13.3317L20.9925 10.3344ZM17.7838 9.81205C17.7881 9.76607 17.7902 9.71996 17.7902 9.67389C17.7902 9.65198 17.7897 9.63007 17.7887 9.60819C17.7881 9.59425 17.7873 9.58033 17.7862 9.56641C17.7855 9.55674 17.7847 9.54709 17.7838 9.53744C17.7789 9.48483 17.7712 9.43246 17.7606 9.38056C17.7494 9.32496 17.7348 9.26987 17.7171 9.21562C17.7158 9.21178 17.7146 9.20795 17.7133 9.20412C17.7114 9.19843 17.7094 9.19275 17.7074 9.18707C17.7046 9.18955 17.7017 9.19202 17.6988 9.19448C17.6481 9.23767 17.5979 9.27924 17.5482 9.31924C17.4694 9.38271 17.3919 9.44224 17.3163 9.49798L17.3146 9.49926C17.2775 9.5266 17.2408 9.55304 17.2046 9.57859C17.2033 9.57949 17.2021 9.58038 17.2008 9.58127C17.1899 9.5889 17.1788 9.59611 17.1676 9.60291C17.1079 9.639 17.0435 9.66329 16.9783 9.67459C16.8544 9.69566 16.727 9.67402 16.617 9.61322C16.601 9.60438 16.5855 9.59478 16.5706 9.58447C16.515 9.54615 16.467 9.49808 16.4288 9.44277C16.4067 9.41076 16.388 9.37633 16.3729 9.33995C16.3249 9.22383 16.3177 9.09483 16.3525 8.97409C16.383 8.8686 16.4439 8.77488 16.5272 8.70444L16.529 8.70296C16.5399 8.69381 16.5512 8.68505 16.5629 8.67672L16.5647 8.67537L16.5661 8.67448C16.5878 8.66005 16.6637 8.60335 16.7768 8.51083L16.7799 8.50825C16.8345 8.46358 16.8975 8.41069 16.9673 8.35029C16.8931 8.31372 16.8163 8.28366 16.7378 8.26022C16.7362 8.25977 16.7347 8.25931 16.7332 8.25886C16.6842 8.24441 16.6345 8.23253 16.5844 8.22327C16.5609 8.21892 16.5372 8.21515 16.5135 8.21196C16.4985 8.20993 16.4834 8.20814 16.4683 8.20658C16.4326 8.20289 16.3968 8.20051 16.3609 8.19944C16.3525 8.19919 16.3441 8.19901 16.3357 8.1989C16.3091 8.19857 16.2825 8.19895 16.2558 8.20007C16.2469 8.20044 16.2379 8.2009 16.229 8.20143C16.1791 8.20443 16.1292 8.20998 16.0795 8.21812L16.0766 8.21861C16.0678 8.22005 16.0592 8.22157 16.0505 8.22317C15.9054 8.24992 15.766 8.2982 15.6365 8.36577C15.5061 8.43387 15.3858 8.52157 15.2802 8.62658C15.2704 8.63634 15.2608 8.64622 15.2513 8.65621C15.0039 8.91695 14.8602 9.25897 14.8468 9.61793C14.8462 9.63488 14.8459 9.65186 14.8458 9.66888C14.8448 10.0601 14.999 10.4358 15.2747 10.7135C15.4109 10.8507 15.5727 10.9597 15.7511 11.0344C15.9294 11.109 16.1207 11.1478 16.314 11.1484C16.318 11.1485 16.3219 11.1484 16.3259 11.1484C16.5152 11.1476 16.7025 11.1102 16.8777 11.0383C16.9855 10.9941 17.0875 10.9373 17.1815 10.8693L17.1847 10.867C17.2454 10.8228 17.3028 10.774 17.3563 10.7208C17.404 10.6733 17.4481 10.6227 17.4886 10.5695C17.5625 10.4723 17.6241 10.3664 17.6719 10.2543L17.6732 10.2511C17.7068 10.1717 17.7336 10.0893 17.753 10.0046C17.7585 9.9805 17.7634 9.95635 17.7676 9.93212L17.7683 9.92854C17.775 9.88986 17.7802 9.851 17.7838 9.81205ZM11.7498 11.2383C11.4458 10.9412 10.9585 10.9469 10.6614 11.2509C10.3643 11.5549 10.37 12.0421 10.674 12.3392L13.4632 15.0787C13.7672 15.3758 14.2545 15.3701 14.5516 15.0661C14.8486 14.7621 14.843 14.2748 14.539 13.9778L11.7498 11.2383ZM12.2108 16.2672C12.5148 16.5642 12.5204 17.0515 12.2233 17.3555C11.9263 17.6595 11.439 17.6652 11.135 17.3681L8.34575 14.6286C8.04173 14.3315 8.03611 13.8443 8.33317 13.5403C8.63024 13.2363 9.11751 13.2306 9.42153 13.5277L12.2108 16.2672Z" fill="#FF5A50"/>
</svg>
