<svg width="129" height="96" viewBox="0 0 129 96" fill="none" xmlns="http://www.w3.org/2000/svg">
<path d="M56.8006 59.5817H49.1001C48.5895 59.5817 48.0998 59.3711 47.7388 58.9961C47.3778 58.6211 47.175 58.1125 47.175 57.5821V49.5836C47.175 49.0533 46.9721 48.5446 46.6111 48.1696C46.2501 47.7946 45.7604 47.584 45.2498 47.584C44.7393 47.584 44.2496 47.7946 43.8886 48.1696C43.5275 48.5446 43.3247 49.0533 43.3247 49.5836V57.5821C43.3247 59.1731 43.9332 60.699 45.0163 61.824C46.0994 62.949 47.5684 63.581 49.1001 63.581H56.8006C57.3112 63.581 57.8008 63.3703 58.1619 62.9953C58.5229 62.6203 58.7257 62.1117 58.7257 61.5814C58.7257 61.051 58.5229 60.5424 58.1619 60.1674C57.8008 59.7924 57.3112 59.5817 56.8006 59.5817ZM83.7524 47.584C83.2418 47.584 82.7521 47.7946 82.3911 48.1696C82.0301 48.5446 81.8273 49.0533 81.8273 49.5836V57.5821C81.8273 58.1125 81.6244 58.6211 81.2634 58.9961C80.9024 59.3711 80.4127 59.5817 79.9021 59.5817H72.2016C71.691 59.5817 71.2014 59.7924 70.8403 60.1674C70.4793 60.5424 70.2765 61.051 70.2765 61.5814C70.2765 62.1117 70.4793 62.6203 70.8403 62.9953C71.2014 63.3703 71.691 63.581 72.2016 63.581H79.9021C81.4338 63.581 82.9028 62.949 83.9859 61.824C85.069 60.699 85.6775 59.1731 85.6775 57.5821V49.5836C85.6775 49.0533 85.4747 48.5446 85.1136 48.1696C84.7526 47.7946 84.263 47.584 83.7524 47.584ZM79.9021 19.5891H72.2016C71.691 19.5891 71.2014 19.7998 70.8403 20.1748C70.4793 20.5498 70.2765 21.0584 70.2765 21.5887C70.2765 22.1191 70.4793 22.6277 70.8403 23.0027C71.2014 23.3777 71.691 23.5884 72.2016 23.5884H79.9021C80.4127 23.5884 80.9024 23.799 81.2634 24.1741C81.6244 24.5491 81.8273 25.0577 81.8273 25.588V33.5865C81.8273 34.1169 82.0301 34.6255 82.3911 35.0005C82.7521 35.3755 83.2418 35.5862 83.7524 35.5862C84.263 35.5862 84.7526 35.3755 85.1136 35.0005C85.4747 34.6255 85.6775 34.1169 85.6775 33.5865V25.588C85.6775 23.997 85.069 22.4712 83.9859 21.3461C82.9028 20.2211 81.4338 19.5891 79.9021 19.5891ZM45.2498 35.5862C45.7604 35.5862 46.2501 35.3755 46.6111 35.0005C46.9721 34.6255 47.175 34.1169 47.175 33.5865V25.588C47.175 25.0577 47.3778 24.5491 47.7388 24.1741C48.0998 23.799 48.5895 23.5884 49.1001 23.5884H56.8006C57.3112 23.5884 57.8008 23.3777 58.1619 23.0027C58.5229 22.6277 58.7257 22.1191 58.7257 21.5887C58.7257 21.0584 58.5229 20.5498 58.1619 20.1748C57.8008 19.7998 57.3112 19.5891 56.8006 19.5891H49.1001C47.5684 19.5891 46.0994 20.2211 45.0163 21.3461C43.9332 22.4712 43.3247 23.997 43.3247 25.588V33.5865C43.3247 34.1169 43.5275 34.6255 43.8886 35.0005C44.2496 35.3755 44.7393 35.5862 45.2498 35.5862ZM60.6509 27.5876H52.9503C52.4398 27.5876 51.9501 27.7983 51.5891 28.1733C51.228 28.5483 51.0252 29.0569 51.0252 29.5873V37.5858C51.0252 38.1161 51.228 38.6247 51.5891 38.9998C51.9501 39.3748 52.4398 39.5854 52.9503 39.5854H60.6509C61.1614 39.5854 61.6511 39.3748 62.0121 38.9998C62.3732 38.6247 62.576 38.1161 62.576 37.5858V29.5873C62.576 29.0569 62.3732 28.5483 62.0121 28.1733C61.6511 27.7983 61.1614 27.5876 60.6509 27.5876ZM58.7257 35.5862H54.8755V31.5869H58.7257V35.5862ZM68.3514 39.5854H76.0519C76.5624 39.5854 77.0521 39.3748 77.4131 38.9998C77.7742 38.6247 77.977 38.1161 77.977 37.5858V29.5873C77.977 29.0569 77.7742 28.5483 77.4131 28.1733C77.0521 27.7983 76.5624 27.5876 76.0519 27.5876H68.3514C67.8408 27.5876 67.3511 27.7983 66.9901 28.1733C66.6291 28.5483 66.4262 29.0569 66.4262 29.5873V37.5858C66.4262 38.1161 66.6291 38.6247 66.9901 38.9998C67.3511 39.3748 67.8408 39.5854 68.3514 39.5854ZM70.2765 31.5869H74.1267V35.5862H70.2765V31.5869ZM60.6509 43.5847H52.9503C52.4398 43.5847 51.9501 43.7954 51.5891 44.1704C51.228 44.5454 51.0252 45.054 51.0252 45.5843V53.5829C51.0252 54.1132 51.228 54.6218 51.5891 54.9968C51.9501 55.3718 52.4398 55.5825 52.9503 55.5825H60.6509C61.1614 55.5825 61.6511 55.3718 62.0121 54.9968C62.3732 54.6218 62.576 54.1132 62.576 53.5829V45.5843C62.576 45.054 62.3732 44.5454 62.0121 44.1704C61.6511 43.7954 61.1614 43.5847 60.6509 43.5847ZM58.7257 51.5832H54.8755V47.584H58.7257V51.5832ZM68.3514 49.5836C68.8619 49.5836 69.3516 49.3729 69.7126 48.9979C70.0737 48.6229 70.2765 48.1143 70.2765 47.584C70.7871 47.584 71.2767 47.3733 71.6378 46.9983C71.9988 46.6233 72.2016 46.1147 72.2016 45.5843C72.2016 45.054 71.9988 44.5454 71.6378 44.1704C71.2767 43.7954 70.7871 43.5847 70.2765 43.5847H68.3514C67.8408 43.5847 67.3511 43.7954 66.9901 44.1704C66.6291 44.5454 66.4262 45.054 66.4262 45.5843V47.584C66.4262 48.1143 66.6291 48.6229 66.9901 48.9979C67.3511 49.3729 67.8408 49.5836 68.3514 49.5836ZM76.0519 43.5847C75.5413 43.5847 75.0516 43.7954 74.6906 44.1704C74.3296 44.5454 74.1267 45.054 74.1267 45.5843V51.5832C73.6162 51.5832 73.1265 51.7939 72.7655 52.1689C72.4044 52.5439 72.2016 53.0525 72.2016 53.5829C72.2016 54.1132 72.4044 54.6218 72.7655 54.9968C73.1265 55.3718 73.6162 55.5825 74.1267 55.5825H76.0519C76.5624 55.5825 77.0521 55.3718 77.4131 54.9968C77.7742 54.6218 77.977 54.1132 77.977 53.5829V45.5843C77.977 45.054 77.7742 44.5454 77.4131 44.1704C77.0521 43.7954 76.5624 43.5847 76.0519 43.5847ZM68.3514 51.5832C67.9706 51.5832 67.5984 51.7005 67.2818 51.9202C66.9652 52.1399 66.7185 52.4522 66.5728 52.8176C66.4271 53.183 66.3889 53.5851 66.4632 53.973C66.5375 54.3609 66.7209 54.7172 66.9901 54.9968C67.2593 55.2765 67.6023 55.4669 67.9758 55.5441C68.3492 55.6212 68.7363 55.5816 69.0881 55.4303C69.4398 55.2789 69.7405 55.0226 69.952 54.6938C70.1636 54.365 70.2765 53.9783 70.2765 53.5829C70.2765 53.0525 70.0737 52.5439 69.7126 52.1689C69.3516 51.7939 68.8619 51.5832 68.3514 51.5832Z" fill="#C4CDDF"/>
<g clip-path="url(#clip0_53262_390510)">
<path d="M112.569 84.1584C112.569 84.4975 112.569 84.8297 112.569 85.1757C111.646 85.1757 110.766 85.1757 109.857 85.1757C109.857 84.5044 109.857 83.8401 109.857 83.1619C110.077 83.1342 110.311 83.1134 110.538 83.065C111.149 82.9335 111.376 82.6567 111.376 82.0131C111.376 79.9024 111.376 77.7916 111.376 75.6809C111.376 75.5425 111.376 75.411 111.376 75.2518C113.605 75.2518 115.799 75.2518 118.028 75.2518C118.028 77.8539 118.028 80.456 118.028 83.0927C118.248 83.1065 118.447 83.1203 118.674 83.1342C118.674 83.8055 118.674 84.4767 118.674 85.1688C117.801 85.1688 116.935 85.1688 116.026 85.1688C116.026 84.8366 116.026 84.5113 116.026 84.1584C114.862 84.1584 113.733 84.1584 112.569 84.1584ZM114.074 76.3314C114.074 78.0269 114.088 79.6809 114.067 81.3418C114.06 81.937 114.244 82.5875 113.662 83.1065C114.251 83.1065 114.777 83.0857 115.288 83.1134C115.614 83.1273 115.707 83.0304 115.707 82.712C115.692 80.6982 115.707 78.6844 115.714 76.6705C115.714 76.5598 115.714 76.4491 115.714 76.3176C115.21 76.3176 114.762 76.3176 114.315 76.3176C114.251 76.3107 114.18 76.3245 114.074 76.3314Z" fill="#C4CDDF"/>
<path d="M35.3152 84.117C34.3923 84.117 33.4836 84.117 32.5395 84.117C32.5395 82.7744 32.5395 81.4318 32.5395 80.0754C32.0993 80.0754 31.7018 80.0754 31.2474 80.0754C31.2474 81.418 31.2474 82.7536 31.2474 84.117C30.3032 84.117 29.4087 84.117 28.4858 84.117C28.4858 81.1689 28.4858 78.2277 28.4858 75.2657C29.3874 75.2657 30.289 75.2657 31.2403 75.2657C31.2403 76.4491 31.2403 77.6118 31.2403 78.809C31.6805 78.809 32.0709 78.809 32.5111 78.809C32.5111 77.6256 32.5111 76.463 32.5111 75.2657C33.4694 75.2657 34.3852 75.2657 35.3152 75.2657C35.3152 78.2138 35.3152 81.155 35.3152 84.117Z" fill="#C4CDDF"/>
<path d="M78.8828 84.11C78.8828 81.1411 78.8828 78.2068 78.8828 75.2518C79.8199 75.2518 80.7357 75.2518 81.687 75.2518C81.687 76.4352 81.687 77.6117 81.687 78.802C82.12 78.802 82.5176 78.802 82.9578 78.802C82.9578 77.6325 82.9578 76.4629 82.9578 75.2657C83.9019 75.2657 84.8035 75.2657 85.7335 75.2657C85.7335 78.2068 85.7335 81.148 85.7335 84.1169C84.8248 84.1169 83.9303 84.1169 82.9932 84.1169C82.9932 82.7882 82.9932 81.4525 82.9932 80.0961C82.546 80.0961 82.1413 80.0961 81.7012 80.0961C81.7012 81.4318 81.7012 82.7605 81.7012 84.1169C80.7428 84.11 79.827 84.11 78.8828 84.11Z" fill="#C4CDDF"/>
<path d="M61.1421 75.1689C63.0163 75.2381 64.862 75.252 66.6936 75.3904C67.5952 75.4596 67.8437 75.861 67.8437 76.7468C67.8437 77.3212 67.8579 77.9025 67.8011 78.47C67.7443 79.0236 67.4532 79.2658 66.8853 79.3558C66.7362 79.3766 66.5942 79.4042 66.3884 79.4458C66.7504 79.5219 67.0415 79.5703 67.3183 79.6534C67.6875 79.7641 67.865 80.0271 67.865 80.4077C67.8579 81.2243 67.8579 82.0478 67.865 82.8644C67.8721 83.2728 67.6875 83.5703 67.3254 83.7157C66.9634 83.8679 66.5729 84.034 66.1825 84.0409C64.5284 84.0963 62.8743 84.0963 61.2202 84.1101C61.1989 84.1101 61.1776 84.0894 61.1421 84.0755C61.1421 81.1551 61.1421 78.2139 61.1421 75.1689ZM63.8256 83.0582C64.1521 83.0582 64.4361 83.0444 64.713 83.0582C65.0324 83.079 65.1602 82.9337 65.1602 82.6292C65.1531 82.0963 65.1602 81.5703 65.1602 81.0375C65.1602 80.0063 65.1602 80.0063 64.1024 80.0478C64.0811 80.0478 64.0456 80.0409 64.0314 80.0478C63.9605 80.117 63.8327 80.1862 63.8327 80.2555C63.8185 81.1828 63.8256 82.0894 63.8256 83.0582ZM63.8398 78.8368C64.1805 78.8506 64.4787 78.8714 64.784 78.8783C64.9969 78.8783 65.1531 78.7952 65.1531 78.553C65.1531 77.9094 65.1673 77.2589 65.146 76.6153C65.146 76.5115 65.0111 76.3316 64.933 76.3247C64.5781 76.2901 64.216 76.3108 63.8398 76.3108C63.8398 77.1759 63.8398 77.9786 63.8398 78.8368Z" fill="#C4CDDF"/>
<path d="M40.2493 80.2763C40.2493 81.5497 40.2493 82.8231 40.2493 84.1172C39.3193 84.1172 38.4319 84.1172 37.5161 84.1172C37.5161 81.1691 37.5161 78.221 37.5161 75.259C38.4177 75.259 39.3051 75.259 40.2493 75.259C40.2493 76.3871 40.2493 77.5082 40.2493 78.6293C40.2777 78.6362 40.3132 78.6431 40.3416 78.657C40.3913 78.567 40.441 78.4701 40.4907 78.3801C40.9734 77.4251 41.4633 76.4632 41.9389 75.5013C42.0312 75.3075 42.1448 75.2383 42.3649 75.2383C43.1458 75.2521 43.9267 75.2452 44.7431 75.2452C44.7005 75.349 44.6792 75.4321 44.6437 75.5082C44.0474 76.7054 43.451 77.9026 42.8405 79.093C42.734 79.3075 42.7127 79.4805 42.8263 79.7019C43.5291 81.0514 44.2106 82.4148 44.8993 83.7712C44.956 83.8819 45.0057 83.9926 45.0696 84.1449C44.2177 84.1449 43.4013 84.1518 42.592 84.1379C42.4997 84.1379 42.3861 84.0064 42.3294 83.9096C41.7117 82.7885 41.1012 81.6604 40.4907 80.5324C40.441 80.4424 40.3913 80.3594 40.3416 80.2694C40.3061 80.2625 40.2777 80.2694 40.2493 80.2763Z" fill="#C4CDDF"/>
<path d="M98.7681 84.1098C98.619 83.3694 98.4699 82.6289 98.3208 81.8746C97.7032 81.8746 97.1139 81.8607 96.5247 81.8884C96.4395 81.8953 96.3046 82.0683 96.2833 82.186C96.1627 82.7258 96.0704 83.2656 95.9639 83.8123C95.9426 83.9161 95.9142 84.013 95.8858 84.1237C94.9842 84.1237 94.0897 84.1237 93.1455 84.1237C93.8341 81.1548 94.5227 78.1998 95.2114 75.2379C96.5815 75.2379 97.9162 75.2448 99.2579 75.231C99.4709 75.231 99.4993 75.3417 99.5348 75.5009C99.9749 77.3832 100.422 79.2586 100.862 81.1341C101.097 82.1168 101.324 83.0995 101.558 84.1098C100.621 84.1098 99.7051 84.1098 98.7681 84.1098ZM97.405 76.5182C97.3482 76.5182 97.2985 76.5251 97.2417 76.5251C96.9933 77.8815 96.7377 79.2379 96.4821 80.6081C97.0714 80.6081 97.6109 80.6081 98.1859 80.6081C97.9233 79.224 97.6606 77.8746 97.405 76.5182Z" fill="#C4CDDF"/>
<path d="M26.9595 84.124C26.0296 84.124 25.1493 84.124 24.2122 84.124C24.0631 83.3904 23.914 82.6568 23.7649 81.8956C23.1118 81.8956 22.4658 81.8956 21.7842 81.8956C21.6423 82.6291 21.4932 83.3696 21.3512 84.117C20.4283 84.117 19.5338 84.117 18.5825 84.117C19.2782 81.1413 19.9669 78.1932 20.6555 75.2312C22.0327 75.2312 23.3816 75.2243 24.7304 75.2381C24.8156 75.2381 24.9434 75.3696 24.9647 75.4596C25.3551 77.0928 25.7314 78.726 26.1147 80.3592C26.3916 81.5357 26.6614 82.7122 26.9382 83.8817C26.9382 83.9579 26.9453 84.0271 26.9595 84.124ZM23.6158 80.6153C23.3603 79.2243 23.1047 77.8471 22.8491 76.4769C22.7994 76.4769 22.7497 76.4838 22.7 76.4838C22.4374 77.8541 22.1818 79.2243 21.9191 80.6153C22.4942 80.6153 23.0337 80.6153 23.6158 80.6153Z" fill="#C4CDDF"/>
<path d="M77.2859 84.1238C76.3701 84.1238 75.4898 84.1238 74.5598 84.1238C74.4107 83.3764 74.2545 82.629 74.1054 81.8746C73.4452 81.8746 72.8063 81.8746 72.1319 81.8746C71.9899 82.622 71.8408 83.3695 71.6917 84.1169C70.7618 84.1169 69.8673 84.1169 68.9302 84.1169C69.0864 83.4248 69.2354 82.7605 69.3916 82.0892C69.9028 79.8954 70.421 77.7016 70.925 75.5079C70.9747 75.3072 71.0386 75.2172 71.2658 75.2241C72.5081 75.238 73.7505 75.231 74.9928 75.2241C75.1703 75.2241 75.2626 75.2587 75.3123 75.4525C75.9654 78.276 76.6256 81.0926 77.2859 83.9092C77.293 83.9715 77.2859 84.0338 77.2859 84.1238ZM73.9635 80.6151C73.6795 79.2241 73.4949 77.8539 73.1755 76.5113C73.1258 76.5182 73.0832 76.5182 73.0335 76.5252C72.7779 77.8816 72.5223 79.238 72.2597 80.6151C72.8418 80.6151 73.3813 80.6151 73.9635 80.6151Z" fill="#C4CDDF"/>
<path d="M57.621 75.2313C58.3096 78.1932 58.9982 81.1413 59.694 84.1309C58.8066 84.1309 57.9476 84.1379 57.0886 84.1171C57.0176 84.1171 56.8969 83.9718 56.8827 83.8749C56.7478 83.2105 56.6271 82.5462 56.4993 81.8541C55.8817 81.8541 55.2783 81.8403 54.6819 81.868C54.5968 81.868 54.469 82.0271 54.4477 82.1309C54.3128 82.7815 54.1992 83.4389 54.0714 84.1102C53.1556 84.1102 52.254 84.1102 51.3027 84.1102C51.4376 83.5358 51.5654 82.9822 51.6932 82.4285C52.2327 80.1171 52.7794 77.7988 53.3118 75.4873C53.3544 75.2866 53.4254 75.2244 53.6313 75.2244C54.9375 75.2382 56.2509 75.2313 57.621 75.2313ZM55.5693 76.477C55.5196 76.47 55.4699 76.47 55.4132 76.4631C55.1505 77.8334 54.8949 79.2105 54.6251 80.6015C55.2144 80.6015 55.7539 80.6015 56.3431 80.6015C56.0876 79.2105 55.832 77.8403 55.5693 76.477Z" fill="#C4CDDF"/>
<path d="M13.2087 78.9683C13.9328 78.9683 14.6214 78.9267 15.2958 78.9821C15.7928 79.0236 16.2897 79.1413 16.7653 79.2935C17.1984 79.4319 17.383 79.7918 17.3759 80.2485C17.3688 81.0997 17.3688 81.951 17.3759 82.8091C17.383 83.2381 17.2055 83.5565 16.8079 83.7157C16.4388 83.861 16.0483 84.0271 15.665 84.0409C13.8973 84.1101 12.1296 84.1309 10.3335 84.1655C10.3335 81.162 10.3335 78.2208 10.3335 75.2589C12.4561 75.2589 14.5646 75.2589 16.7086 75.2589C16.7086 75.5911 16.7086 75.9302 16.7086 76.3039C15.5514 76.3039 14.3942 76.3039 13.2087 76.3039C13.2087 77.2035 13.2087 78.0617 13.2087 78.9683ZM13.2016 83.0582C13.5565 83.0582 13.876 83.0513 14.1954 83.0582C14.4297 83.0651 14.5362 82.9406 14.5362 82.7468C14.5433 81.9371 14.5433 81.1205 14.522 80.297C14.522 80.1932 14.38 80.0202 14.2877 80.0132C13.9328 79.9786 13.5636 79.9994 13.2016 79.9994C13.2016 81.0375 13.2016 82.0202 13.2016 83.0582Z" fill="#C4CDDF"/>
<path d="M105.554 84.117C104.617 84.117 103.73 84.117 102.821 84.117C102.821 81.162 102.821 78.2208 102.821 75.252C102.921 75.2451 103.027 75.2312 103.127 75.2312C104.603 75.2312 106.08 75.2243 107.556 75.2381C107.904 75.2451 108.259 75.2935 108.6 75.3766C109.246 75.5357 109.53 75.9233 109.53 76.5738C109.53 77.4873 109.494 78.3939 109.537 79.3073C109.594 80.4146 109.005 80.7814 108.039 80.8644C107.223 80.9336 106.392 80.8783 105.54 80.8783C105.554 82.0132 105.554 83.0444 105.554 84.117ZM105.554 79.9302C106.016 79.9302 106.442 79.9371 106.868 79.9302C107.088 79.9233 107.216 79.8125 107.216 79.5842C107.216 78.6015 107.223 77.6257 107.201 76.643C107.201 76.5323 107.059 76.3385 106.96 76.3316C106.499 76.2762 106.037 76.2762 105.554 76.2554C105.554 77.515 105.554 78.6984 105.554 79.9302Z" fill="#C4CDDF"/>
<path d="M88.1899 75.2518C90.0428 75.2518 91.8673 75.2518 93.7486 75.2518C93.7486 75.5494 93.7628 75.847 93.7345 76.1376C93.7274 76.1999 93.557 76.2968 93.4647 76.2968C92.7406 76.3107 92.0235 76.3037 91.2994 76.3037C91.1716 76.3037 91.0438 76.3037 90.8806 76.3037C90.8806 78.9197 90.8806 81.501 90.8806 84.103C89.9648 84.103 89.0915 84.103 88.1899 84.103C88.1899 81.1619 88.1899 78.2276 88.1899 75.2518Z" fill="#C4CDDF"/>
</g>

<defs>
<clipPath id="clip0_53262_390510">
<rect width="108.333" height="10" fill="white" transform="translate(10.3335 75.1689)"/>
</clipPath>
</defs>
</svg>
