<svg width="129" height="96" viewBox="0 0 129 96" fill="none" xmlns="http://www.w3.org/2000/svg">
<rect x="33.2842" y="22.0011" width="61.7642" height="39.1679" rx="7.84193" fill="#ADD8A9"/>
<rect opacity="1" x="33.2847" y="30.5266" width="61.7642" height="8.72862" fill="#004624"/>
<g clip-path="url(#clip0_53262_390488)">
<path d="M112.235 84.1584C112.235 84.4975 112.235 84.8297 112.235 85.1757C111.312 85.1757 110.432 85.1757 109.523 85.1757C109.523 84.5044 109.523 83.8401 109.523 83.1619C109.744 83.1342 109.978 83.1134 110.205 83.065C110.815 82.9335 111.043 82.6567 111.043 82.0131C111.043 79.9024 111.043 77.7916 111.043 75.6809C111.043 75.5425 111.043 75.411 111.043 75.2518C113.272 75.2518 115.465 75.2518 117.695 75.2518C117.695 77.8539 117.695 80.456 117.695 83.0927C117.915 83.1065 118.113 83.1203 118.341 83.1342C118.341 83.8055 118.341 84.4767 118.341 85.1688C117.467 85.1688 116.601 85.1688 115.693 85.1688C115.693 84.8366 115.693 84.5113 115.693 84.1584C114.528 84.1584 113.4 84.1584 112.235 84.1584ZM113.74 76.3314C113.74 78.0269 113.755 79.6809 113.733 81.3418C113.726 81.937 113.911 82.5875 113.329 83.1065C113.918 83.1065 114.443 83.0857 114.954 83.1134C115.281 83.1273 115.373 83.0304 115.373 82.712C115.359 80.6982 115.373 78.6844 115.38 76.6705C115.38 76.5598 115.38 76.4491 115.38 76.3176C114.876 76.3176 114.429 76.3176 113.982 76.3176C113.918 76.3107 113.847 76.3245 113.74 76.3314Z" fill="#004624"/>
<path d="M34.9817 84.117C34.0588 84.117 33.1502 84.117 32.206 84.117C32.206 82.7744 32.206 81.4318 32.206 80.0754C31.7658 80.0754 31.3683 80.0754 30.9139 80.0754C30.9139 81.418 30.9139 82.7536 30.9139 84.117C29.9697 84.117 29.0752 84.117 28.1523 84.117C28.1523 81.1689 28.1523 78.2277 28.1523 75.2657C29.0539 75.2657 29.9555 75.2657 30.9068 75.2657C30.9068 76.4491 30.9068 77.6118 30.9068 78.809C31.347 78.809 31.7374 78.809 32.1776 78.809C32.1776 77.6256 32.1776 76.463 32.1776 75.2657C33.136 75.2657 34.0517 75.2657 34.9817 75.2657C34.9817 78.2138 34.9817 81.155 34.9817 84.117Z" fill="#004624"/>
<path d="M78.5493 84.11C78.5493 81.1411 78.5493 78.2068 78.5493 75.2518C79.4864 75.2518 80.4022 75.2518 81.3535 75.2518C81.3535 76.4352 81.3535 77.6117 81.3535 78.802C81.7865 78.802 82.1841 78.802 82.6243 78.802C82.6243 77.6325 82.6243 76.4629 82.6243 75.2657C83.5684 75.2657 84.47 75.2657 85.4 75.2657C85.4 78.2068 85.4 81.148 85.4 84.1169C84.4913 84.1169 83.5968 84.1169 82.6598 84.1169C82.6598 82.7882 82.6598 81.4525 82.6598 80.0961C82.2125 80.0961 81.8078 80.0961 81.3677 80.0961C81.3677 81.4318 81.3677 82.7605 81.3677 84.1169C80.4093 84.11 79.4935 84.11 78.5493 84.11Z" fill="#004624"/>
<path d="M60.8086 75.1689C62.6828 75.2381 64.5285 75.252 66.3601 75.3904C67.2617 75.4596 67.5102 75.861 67.5102 76.7468C67.5102 77.3212 67.5244 77.9025 67.4676 78.47C67.4108 79.0236 67.1197 79.2658 66.5518 79.3558C66.4027 79.3766 66.2607 79.4042 66.0549 79.4458C66.4169 79.5219 66.708 79.5703 66.9849 79.6534C67.354 79.7641 67.5315 80.0271 67.5315 80.4077C67.5244 81.2243 67.5244 82.0478 67.5315 82.8644C67.5386 83.2728 67.354 83.5703 66.992 83.7157C66.6299 83.8679 66.2394 84.034 65.849 84.0409C64.1949 84.0963 62.5408 84.0963 60.8867 84.1101C60.8654 84.1101 60.8441 84.0894 60.8086 84.0755C60.8086 81.1551 60.8086 78.2139 60.8086 75.1689ZM63.4921 83.0582C63.8186 83.0582 64.1026 83.0444 64.3795 83.0582C64.6989 83.079 64.8267 82.9337 64.8267 82.6292C64.8196 82.0963 64.8267 81.5703 64.8267 81.0375C64.8267 80.0063 64.8267 80.0063 63.7689 80.0478C63.7476 80.0478 63.7121 80.0409 63.6979 80.0478C63.627 80.117 63.4992 80.1862 63.4992 80.2555C63.485 81.1828 63.4921 82.0894 63.4921 83.0582ZM63.5063 78.8368C63.847 78.8506 64.1452 78.8714 64.4505 78.8783C64.6634 78.8783 64.8196 78.7952 64.8196 78.553C64.8196 77.9094 64.8338 77.2589 64.8125 76.6153C64.8125 76.5115 64.6776 76.3316 64.5995 76.3247C64.2446 76.2901 63.8825 76.3108 63.5063 76.3108C63.5063 77.1759 63.5063 77.9786 63.5063 78.8368Z" fill="#004624"/>
<path d="M39.9158 80.2763C39.9158 81.5497 39.9158 82.8231 39.9158 84.1172C38.9858 84.1172 38.0984 84.1172 37.1826 84.1172C37.1826 81.1691 37.1826 78.221 37.1826 75.259C38.0842 75.259 38.9716 75.259 39.9158 75.259C39.9158 76.3871 39.9158 77.5082 39.9158 78.6293C39.9442 78.6362 39.9797 78.6431 40.0081 78.657C40.0578 78.567 40.1075 78.4701 40.1572 78.3801C40.6399 77.4251 41.1298 76.4632 41.6054 75.5013C41.6977 75.3075 41.8113 75.2383 42.0314 75.2383C42.8123 75.2521 43.5932 75.2452 44.4096 75.2452C44.367 75.349 44.3457 75.4321 44.3102 75.5082C43.7139 76.7054 43.1175 77.9026 42.507 79.093C42.4005 79.3075 42.3792 79.4805 42.4928 79.7019C43.1956 81.0514 43.8771 82.4148 44.5658 83.7712C44.6226 83.8819 44.6722 83.9926 44.7361 84.1449C43.8842 84.1449 43.0678 84.1518 42.2585 84.1379C42.1662 84.1379 42.0527 84.0064 41.9959 83.9096C41.3782 82.7885 40.7677 81.6604 40.1572 80.5324C40.1075 80.4424 40.0578 80.3594 40.0081 80.2694C39.9726 80.2625 39.9442 80.2694 39.9158 80.2763Z" fill="#004624"/>
<path d="M98.4346 84.1098C98.2855 83.3694 98.1364 82.6289 97.9873 81.8746C97.3697 81.8746 96.7804 81.8607 96.1912 81.8884C96.106 81.8953 95.9711 82.0683 95.9498 82.186C95.8292 82.7258 95.7369 83.2656 95.6304 83.8123C95.6091 83.9161 95.5807 84.013 95.5523 84.1237C94.6507 84.1237 93.7562 84.1237 92.812 84.1237C93.5006 81.1548 94.1892 78.1998 94.8779 75.2379C96.248 75.2379 97.5827 75.2448 98.9244 75.231C99.1374 75.231 99.1658 75.3417 99.2013 75.5009C99.6414 77.3832 100.089 79.2586 100.529 81.1341C100.763 82.1168 100.99 83.0995 101.225 84.1098C100.287 84.1098 99.3716 84.1098 98.4346 84.1098ZM97.0715 76.5182C97.0147 76.5182 96.965 76.5251 96.9082 76.5251C96.6598 77.8815 96.4042 79.2379 96.1486 80.6081C96.7379 80.6081 97.2774 80.6081 97.8524 80.6081C97.5898 79.224 97.3271 77.8746 97.0715 76.5182Z" fill="#004624"/>
<path d="M26.626 84.124C25.6961 84.124 24.8158 84.124 23.8787 84.124C23.7296 83.3904 23.5805 82.6568 23.4314 81.8956C22.7783 81.8956 22.1323 81.8956 21.4507 81.8956C21.3088 82.6291 21.1597 83.3696 21.0177 84.117C20.0948 84.117 19.2003 84.117 18.249 84.117C18.9447 81.1413 19.6334 78.1932 20.322 75.2312C21.6992 75.2312 23.0481 75.2243 24.3969 75.2381C24.4821 75.2381 24.6099 75.3696 24.6312 75.4596C25.0216 77.0928 25.3979 78.726 25.7812 80.3592C26.0581 81.5357 26.3279 82.7122 26.6047 83.8817C26.6047 83.9579 26.6118 84.0271 26.626 84.124ZM23.2823 80.6153C23.0268 79.2243 22.7712 77.8471 22.5156 76.4769C22.4659 76.4769 22.4162 76.4838 22.3665 76.4838C22.1039 77.8541 21.8483 79.2243 21.5856 80.6153C22.1607 80.6153 22.7002 80.6153 23.2823 80.6153Z" fill="#004624"/>
<path d="M76.9524 84.1238C76.0366 84.1238 75.1563 84.1238 74.2263 84.1238C74.0772 83.3764 73.921 82.629 73.772 81.8746C73.1117 81.8746 72.4728 81.8746 71.7984 81.8746C71.6564 82.622 71.5073 83.3695 71.3582 84.1169C70.4283 84.1169 69.5338 84.1169 68.5967 84.1169C68.7529 83.4248 68.9019 82.7605 69.0581 82.0892C69.5693 79.8954 70.0875 77.7016 70.5915 75.5079C70.6412 75.3072 70.7051 75.2172 70.9323 75.2241C72.1746 75.238 73.417 75.231 74.6593 75.2241C74.8368 75.2241 74.9291 75.2587 74.9788 75.4525C75.6319 78.276 76.2921 81.0926 76.9524 83.9092C76.9595 83.9715 76.9524 84.0338 76.9524 84.1238ZM73.63 80.6151C73.346 79.2241 73.1614 77.8539 72.842 76.5113C72.7923 76.5182 72.7497 76.5182 72.7 76.5252C72.4444 77.8816 72.1888 79.238 71.9262 80.6151C72.5083 80.6151 73.0478 80.6151 73.63 80.6151Z" fill="#004624"/>
<path d="M57.2875 75.2313C57.9761 78.1932 58.6647 81.1413 59.3605 84.1309C58.4731 84.1309 57.6141 84.1379 56.7551 84.1171C56.6841 84.1171 56.5634 83.9718 56.5492 83.8749C56.4143 83.2105 56.2936 82.5462 56.1658 81.8541C55.5482 81.8541 54.9448 81.8403 54.3484 81.868C54.2633 81.868 54.1355 82.0271 54.1142 82.1309C53.9793 82.7815 53.8657 83.4389 53.7379 84.1102C52.8221 84.1102 51.9205 84.1102 50.9692 84.1102C51.1041 83.5358 51.2319 82.9822 51.3597 82.4285C51.8992 80.1171 52.4459 77.7988 52.9783 75.4873C53.0209 75.2866 53.0919 75.2244 53.2978 75.2244C54.604 75.2382 55.9174 75.2313 57.2875 75.2313ZM55.2358 76.477C55.1861 76.47 55.1365 76.47 55.0797 76.4631C54.817 77.8334 54.5614 79.2105 54.2917 80.6015C54.8809 80.6015 55.4204 80.6015 56.0096 80.6015C55.7541 79.2105 55.4985 77.8403 55.2358 76.477Z" fill="#004624"/>
<path d="M12.8752 78.9683C13.5993 78.9683 14.2879 78.9267 14.9623 78.9821C15.4593 79.0236 15.9562 79.1413 16.4318 79.2935C16.8649 79.4319 17.0495 79.7918 17.0424 80.2485C17.0353 81.0997 17.0353 81.951 17.0424 82.8091C17.0495 83.2381 16.872 83.5565 16.4744 83.7157C16.1053 83.861 15.7148 84.0271 15.3315 84.0409C13.5638 84.1101 11.7961 84.1309 10 84.1655C10 81.162 10 78.2208 10 75.2589C12.1227 75.2589 14.2311 75.2589 16.3751 75.2589C16.3751 75.5911 16.3751 75.9302 16.3751 76.3039C15.2179 76.3039 14.0607 76.3039 12.8752 76.3039C12.8752 77.2035 12.8752 78.0617 12.8752 78.9683ZM12.8681 83.0582C13.223 83.0582 13.5425 83.0513 13.8619 83.0582C14.0962 83.0651 14.2027 82.9406 14.2027 82.7468C14.2098 81.9371 14.2098 81.1205 14.1885 80.297C14.1885 80.1932 14.0465 80.0202 13.9542 80.0132C13.5993 79.9786 13.2301 79.9994 12.8681 79.9994C12.8681 81.0375 12.8681 82.0202 12.8681 83.0582Z" fill="#004624"/>
<path d="M105.221 84.117C104.284 84.117 103.396 84.117 102.488 84.117C102.488 81.162 102.488 78.2208 102.488 75.252C102.587 75.2451 102.694 75.2312 102.793 75.2312C104.27 75.2312 105.746 75.2243 107.223 75.2381C107.571 75.2451 107.926 75.2935 108.266 75.3766C108.913 75.5357 109.196 75.9233 109.196 76.5738C109.196 77.4873 109.161 78.3939 109.204 79.3073C109.26 80.4146 108.671 80.7814 107.706 80.8644C106.889 80.9336 106.059 80.8783 105.207 80.8783C105.221 82.0132 105.221 83.0444 105.221 84.117ZM105.221 79.9302C105.682 79.9302 106.108 79.9371 106.534 79.9302C106.754 79.9233 106.882 79.8125 106.882 79.5842C106.882 78.6015 106.889 77.6257 106.868 76.643C106.868 76.5323 106.726 76.3385 106.627 76.3316C106.165 76.2762 105.704 76.2762 105.221 76.2554C105.221 77.515 105.221 78.6984 105.221 79.9302Z" fill="#004624"/>
<path d="M87.8564 75.2518C89.7093 75.2518 91.5339 75.2518 93.4151 75.2518C93.4151 75.5494 93.4294 75.847 93.401 76.1376C93.3939 76.1999 93.2235 76.2968 93.1312 76.2968C92.4071 76.3107 91.69 76.3037 90.9659 76.3037C90.8381 76.3037 90.7103 76.3037 90.5471 76.3037C90.5471 78.9197 90.5471 81.501 90.5471 84.103C89.6313 84.103 88.758 84.103 87.8564 84.103C87.8564 81.1619 87.8564 78.2276 87.8564 75.2518Z" fill="#004624"/>
</g>

<defs>
<clipPath id="clip0_53262_390488">
<rect width="108.333" height="10" fill="white" transform="translate(10 75.1689)"/>
</clipPath>
</defs>
</svg>
