<svg width="128" height="98" viewBox="0 0 128 98" fill="none" xmlns="http://www.w3.org/2000/svg">
<g opacity="1">
<mask id="path-2-inside-1_53262_390443" fill="white">
<path d="M36.4907 24.2998C36.4907 22.0907 38.2816 20.2998 40.4907 20.2998H80.0313C81.6882 20.2998 83.0313 21.643 83.0313 23.2998V53.8831C83.0313 54.9877 82.1359 55.8831 81.0313 55.8831H38.4907C37.3862 55.8831 36.4907 54.9877 36.4907 53.8831V24.2998Z"/>
</mask>
<path d="M36.4907 24.2998C36.4907 22.0907 38.2816 20.2998 40.4907 20.2998H80.0313C81.6882 20.2998 83.0313 21.643 83.0313 23.2998V53.8831C83.0313 54.9877 82.1359 55.8831 81.0313 55.8831H38.4907C37.3862 55.8831 36.4907 54.9877 36.4907 53.8831V24.2998Z" fill="white" stroke="#232056" stroke-width="5" mask="url(#path-2-inside-1_53262_390443)"/>
<rect x="36.4907" y="26.9714" width="53.0175" height="35.5833" rx="4" fill="#232056"/>
<path d="M75.7144 44.0914C75.7144 40.7777 78.4006 38.0914 81.7144 38.0914H90.1778C90.7301 38.0914 91.1778 38.5391 91.1778 39.0914V50.4352C91.1778 50.9874 90.7301 51.4352 90.1778 51.4352H81.7144C78.4006 51.4352 75.7144 48.7489 75.7144 45.4352V44.0914Z" fill="#EF1C31"/>
<ellipse cx="82.1168" cy="44.7631" rx="2.74374" ry="2.76224" fill="white"/>
<path d="M36.4907 24.2998C36.4907 22.0907 38.2816 20.2998 40.4907 20.2998H41.2568C41.2568 20.2998 36.4907 24.9324 40.3254 27.1458C44.1601 29.3592 36.4907 30.4501 36.4907 30.4501V24.2998Z" fill="#232056"/>
</g>
<g opacity="1" clip-path="url(#clip0_53262_390443)">
<path fill-rule="evenodd" clip-rule="evenodd" d="M63.4406 83.2303L65.013 78.2217C65.1695 77.7232 65.6315 77.384 66.154 77.384V77.384C66.9614 77.384 67.5367 78.1676 67.295 78.9379L65.3978 84.9844C64.7029 86.6638 62.3282 86.6754 61.6169 85.0028L59.5081 79.2778C59.2787 78.655 59.478 77.9552 60.0011 77.5467V77.5467C60.5488 77.119 61.3544 77.3536 61.5869 78.0084L63.4406 83.2303Z" fill="#EF1C31"/>
<path fill-rule="evenodd" clip-rule="evenodd" d="M57.6657 83.2079L56.1768 78.2329C56.026 77.7291 55.5625 77.384 55.0367 77.384V77.384C54.2333 77.384 53.6608 78.1638 53.9013 78.9303L55.8009 84.9844C56.4959 86.6638 58.8705 86.6754 59.5818 85.0028L61.6135 79.2611C61.8339 78.6383 61.6315 77.9445 61.1108 77.5379V77.5379C60.5599 77.1077 59.7495 77.3435 59.5154 78.0021L57.6657 83.2079Z" fill="#EF1C31"/>
<path d="M46.1162 79.2465V78.7244C46.1162 78.1884 45.6817 77.7539 45.1457 77.7539H43.2146C42.6786 77.7539 42.2441 78.1884 42.2441 78.7244V79.2465C42.2441 79.7825 42.6786 80.217 43.2146 80.217H45.1457C45.6817 80.217 46.1162 79.7825 46.1162 79.2465Z" fill="#334866"/>
<path d="M89.8335 75.1807H89.2694C88.7334 75.1807 88.2988 75.6152 88.2988 76.1512V85.28C88.2988 85.816 88.7334 86.2506 89.2694 86.2506H89.8335C90.3695 86.2506 90.804 85.816 90.804 85.28V76.1512C90.804 75.6152 90.3695 75.1807 89.8335 75.1807Z" fill="#EF1C31"/>
<path d="M94.366 77.8551C94.5836 77.6018 94.901 77.4561 95.235 77.4561V77.4561C96.2131 77.4561 96.7415 78.6028 96.1059 79.3463L90.3331 86.0999L88.8135 84.316L94.366 77.8551Z" fill="#EF1C31"/>
<path d="M92.6685 83.578C92.2141 83.1067 92.3471 82.33 92.9324 82.0367L93.2847 81.8601C93.6726 81.6657 94.1424 81.7524 94.4354 82.0725L96.4128 84.2327C97.1086 84.9927 96.5693 86.2173 95.5389 86.2173V86.2173C95.3307 86.2173 95.1315 86.1327 94.987 85.9828L92.6685 83.578Z" fill="#EF1C31"/>
<path d="M49.0825 81.2622V81.6824C49.0825 82.2184 49.517 82.6529 50.0531 82.6529H51.5412C52.0772 82.6529 52.5117 82.2184 52.5117 81.6824V81.2622C52.5117 80.7262 52.0772 80.2916 51.5412 80.2916L50.0531 80.2916C49.517 80.2916 49.0825 80.7262 49.0825 81.2622Z" fill="#334866"/>
<path fill-rule="evenodd" clip-rule="evenodd" d="M71.5991 77.3765C69.9911 77.3765 68.6875 78.68 68.6875 80.2881V83.4303C68.6875 85.0383 69.9911 86.3419 71.5991 86.3419H75.5303C77.1383 86.3419 78.4419 85.0383 78.4419 83.4303V80.2881C78.4419 78.68 77.1383 77.3765 75.5303 77.3765H71.5991ZM72.2313 79.581C71.6953 79.581 71.2608 80.0156 71.2608 80.5516V83.1671C71.2608 83.7031 71.6953 84.1377 72.2313 84.1377H74.898C75.434 84.1377 75.8685 83.7031 75.8685 83.1671V80.5516C75.8685 80.0156 75.434 79.581 74.898 79.581H72.2313Z" fill="#EF1C31"/>
<path fill-rule="evenodd" clip-rule="evenodd" d="M30.2715 81.8808C30.2715 79.4051 32.2785 77.3765 34.7542 77.3765H37.5656V77.3765C38.9243 77.3765 40.0258 78.4779 40.0258 79.8366V85.0609C40.0258 85.7684 39.4522 86.3419 38.7447 86.3419V86.3419C38.0372 86.3419 37.4637 85.7684 37.4637 85.0609V81.7743C37.4637 80.6697 36.5682 79.7743 35.4637 79.7743H34.8413C33.7368 79.7743 32.8413 80.6697 32.8413 81.7743L32.8413 82.2693C32.8413 83.1943 33.5912 83.9441 34.5162 83.9441H34.9921C35.6542 83.9441 36.191 84.4809 36.191 85.143V85.143C36.191 85.8051 35.6542 86.3419 34.9921 86.3419H34.7111C32.2592 86.3419 30.2715 84.3328 30.2715 81.8808V81.8808Z" fill="#334866"/>
<path fill-rule="evenodd" clip-rule="evenodd" d="M43.4383 75.1807C43.9743 75.1807 44.4089 75.6152 44.4089 76.1512V82.1505C44.4089 83.0563 45.1431 83.7906 46.0489 83.7906H46.7793C47.3153 83.7906 47.7498 84.2251 47.7498 84.7612V85.2802C47.7498 85.8162 47.3153 86.2507 46.7793 86.2507H46.0489C43.7845 86.2507 41.9487 84.415 41.9487 82.1505V76.1512C41.9487 75.6152 42.3833 75.1807 42.9193 75.1807H43.4383Z" fill="#334866"/>
<path fill-rule="evenodd" clip-rule="evenodd" d="M81.9852 86.3419C82.5212 86.3419 82.9557 85.9074 82.9557 85.3714V81.41C82.9557 80.5189 83.69 79.7966 84.5958 79.7966H85.3262C85.8622 79.7966 86.2967 79.362 86.2967 78.826V78.347C86.2967 77.811 85.8622 77.3765 85.3262 77.3765H84.5958C82.3313 77.3765 80.4956 79.1823 80.4956 81.41V85.3714C80.4956 85.9074 80.9301 86.3419 81.4661 86.3419H81.9852Z" fill="#EF1C31"/>
</g>

<defs>
<clipPath id="clip0_53262_390443">
<rect width="69" height="12" fill="white" transform="translate(29.5 75.1689)"/>
</clipPath>
</defs>
</svg>
