<svg width="131" height="98" viewBox="0 0 131 98" fill="none" xmlns="http://www.w3.org/2000/svg">
<path d="M28.888 53.9971H26.3033C26.1061 53.9971 25.9463 54.1568 25.9463 54.3538V56.9368C25.9463 57.1338 26.1061 57.2935 26.3033 57.2935H28.888C29.0852 57.2935 29.245 57.1338 29.245 56.9368V54.3538C29.245 54.1568 29.0852 53.9971 28.888 53.9971Z" fill="#C4CDDF"/>
<path d="M28.888 46.7262H26.3033C26.1061 46.7262 25.9463 46.8859 25.9463 47.083V49.6659C25.9463 49.8629 26.1061 50.0227 26.3033 50.0227H28.888C29.0852 50.0227 29.245 49.8629 29.245 49.6659V47.083C29.245 46.8859 29.0852 46.7262 28.888 46.7262Z" fill="#C4CDDF"/>
<path d="M28.888 39.4554H26.3033C26.1061 39.4554 25.9463 39.6152 25.9463 39.8122V42.3952C25.9463 42.5922 26.1061 42.7519 26.3033 42.7519H28.888C29.0852 42.7519 29.245 42.5922 29.245 42.3952V39.8122C29.245 39.6152 29.0852 39.4554 28.888 39.4554Z" fill="#C4CDDF"/>
<path d="M21.6194 53.9971H19.0347C18.8376 53.9971 18.6777 54.1568 18.6777 54.3538V56.9368C18.6777 57.1338 18.8376 57.2935 19.0347 57.2935H21.6194C21.8166 57.2935 21.9764 57.1338 21.9764 56.9368V54.3538C21.9764 54.1568 21.8166 53.9971 21.6194 53.9971Z" fill="#C4CDDF"/>
<path d="M21.6194 46.7262H19.0347C18.8376 46.7262 18.6777 46.8859 18.6777 47.083V49.6659C18.6777 49.8629 18.8376 50.0227 19.0347 50.0227H21.6194C21.8166 50.0227 21.9764 49.8629 21.9764 49.6659V47.083C21.9764 46.8859 21.8166 46.7262 21.6194 46.7262Z" fill="#C4CDDF"/>
<path d="M21.6194 39.4554H19.0347C18.8376 39.4554 18.6777 39.6152 18.6777 39.8122V42.3952C18.6777 42.5922 18.8376 42.7519 19.0347 42.7519H21.6194C21.8166 42.7519 21.9764 42.5922 21.9764 42.3952V39.8122C21.9764 39.6152 21.8166 39.4554 21.6194 39.4554Z" fill="#C4CDDF"/>
<path d="M14.3436 53.9971H11.7589C11.5617 53.9971 11.4019 54.1568 11.4019 54.3538V56.9368C11.4019 57.1338 11.5617 57.2935 11.7589 57.2935H14.3436C14.5407 57.2935 14.7006 57.1338 14.7006 56.9368V54.3538C14.7006 54.1568 14.5407 53.9971 14.3436 53.9971Z" fill="#C4CDDF"/>
<path d="M14.3436 46.7262H11.7589C11.5617 46.7262 11.4019 46.8859 11.4019 47.083V49.6659C11.4019 49.8629 11.5617 50.0227 11.7589 50.0227H14.3436C14.5407 50.0227 14.7006 49.8629 14.7006 49.6659V47.083C14.7006 46.8859 14.5407 46.7262 14.3436 46.7262Z" fill="#C4CDDF"/>
<path d="M14.3436 39.4554H11.7589C11.5617 39.4554 11.4019 39.6152 11.4019 39.8122V42.3952C11.4019 42.5922 11.5617 42.7519 11.7589 42.7519H14.3436C14.5407 42.7519 14.7006 42.5922 14.7006 42.3952V39.8122C14.7006 39.6152 14.5407 39.4554 14.3436 39.4554Z" fill="#C4CDDF"/>
<path d="M35.814 39.4554H38.3987C38.4934 39.4554 38.5842 39.493 38.6512 39.5599C38.7181 39.6268 38.7557 39.7176 38.7557 39.8122V56.9367C38.7557 57.0313 38.7181 57.1221 38.6512 57.189C38.5842 57.2559 38.4934 57.2935 38.3987 57.2935H35.814C35.7194 57.2935 35.6285 57.2559 35.5616 57.189C35.4946 57.1221 35.457 57.0313 35.457 56.9367V39.8122C35.457 39.7176 35.4946 39.6268 35.5616 39.5599C35.6285 39.493 35.7194 39.4554 35.814 39.4554Z" fill="#C4CDDF"/>
<path d="M41.7329 56.9367V44.2931C41.7329 44.1985 41.7705 44.1078 41.8375 44.0409C41.9044 43.974 41.9952 43.9364 42.0899 43.9364H44.339C44.4337 43.9364 44.5245 43.974 44.5915 44.0409C44.6584 44.1078 44.696 44.1985 44.696 44.2931V45.0067C45.1774 44.5231 45.7507 44.1408 46.3822 43.8822C47.0138 43.6237 47.6907 43.4941 48.3732 43.5011C49.0604 43.4784 49.7453 43.5929 50.3878 43.8379C51.0302 44.0829 51.6173 44.4536 52.1146 44.9282C53.0999 45.87 53.5854 47.4041 53.5854 49.5304V56.9367C53.5854 57.0313 53.5478 57.1221 53.4809 57.189C53.4139 57.2559 53.3231 57.2935 53.2284 57.2935H50.7365C50.6419 57.2935 50.5511 57.2559 50.4841 57.189C50.4172 57.1221 50.3795 57.0313 50.3795 56.9367V50.4366C50.3795 47.7918 49.487 46.467 47.702 46.4622C47.321 46.4482 46.9418 46.522 46.5939 46.6779C46.246 46.8338 45.9386 47.0676 45.6957 47.3613C45.1911 47.9701 44.9388 49.0404 44.9388 50.5721V56.9367C44.9388 57.0313 44.9012 57.1221 44.8342 57.189C44.7673 57.2559 44.6765 57.2935 44.5818 57.2935H42.0828C41.9893 57.2916 41.9004 57.2532 41.8349 57.1865C41.7695 57.1198 41.7329 57.0301 41.7329 56.9367Z" fill="#C4CDDF"/>
<path d="M61.9896 51.9778L64.6814 44.2004C64.7067 44.1303 64.7534 44.0699 64.8149 44.0276C64.8764 43.9854 64.9495 43.9635 65.0241 43.9649H67.7373C67.7949 43.9657 67.8515 43.9803 67.9022 44.0076C67.9528 44.0349 67.9962 44.0741 68.0284 44.1218C68.0607 44.1694 68.0809 44.2242 68.0874 44.2814C68.094 44.3385 68.0865 44.3964 68.0658 44.4501L62.9106 57.0723C62.8834 57.1386 62.8368 57.1951 62.777 57.2346C62.7171 57.274 62.6468 57.2946 62.5751 57.2935H60.5544C60.4839 57.2931 60.4151 57.272 60.3567 57.2326C60.2982 57.1932 60.2528 57.1375 60.226 57.0723L55.0708 44.4501C55.0483 44.3965 55.0394 44.3381 55.0451 44.2802C55.0509 44.2223 55.0709 44.1668 55.1035 44.1186C55.1361 44.0704 55.1803 44.0311 55.2319 44.0043C55.2836 43.9775 55.3411 43.9639 55.3993 43.9649H58.0697C58.1424 43.9634 58.2139 43.9845 58.274 44.0255C58.3342 44.0664 58.38 44.125 58.4053 44.1932L61.3184 51.9849C61.3442 52.0535 61.3904 52.1125 61.4509 52.154C61.5114 52.1954 61.5832 52.2172 61.6565 52.2164C61.7298 52.2156 61.8011 52.1923 61.8607 52.1496C61.9203 52.1069 61.9653 52.0469 61.9896 51.9778Z" fill="#C4CDDF"/>
<path d="M68.9367 50.7148C68.9164 49.7733 69.0889 48.8375 69.4438 47.9651C69.7986 47.0927 70.3283 46.302 71.0001 45.6416C71.6531 44.9798 72.4313 44.4542 73.2893 44.0955C74.1473 43.7367 75.0681 43.552 75.9982 43.552C76.9283 43.552 77.8491 43.7367 78.7071 44.0955C79.5651 44.4542 80.3433 44.9798 80.9963 45.6416C81.6632 46.3046 82.1882 47.0962 82.5393 47.9684C82.8904 48.8405 83.0602 49.775 83.0383 50.7148C83.0585 51.6408 82.8897 52.5612 82.5423 53.4199C82.1949 54.2786 81.6762 55.0576 81.0177 55.7094C79.683 57.0168 77.8886 57.7491 76.0196 57.7491C74.1507 57.7491 72.3563 57.0168 71.0216 55.7094C70.3511 55.0633 69.8202 54.2868 69.4617 53.4278C69.1031 52.5688 68.9244 51.6455 68.9367 50.7148ZM72.1426 50.7148C72.1251 51.2579 72.2165 51.7991 72.4115 52.3064C72.6065 52.8137 72.901 53.2769 73.2778 53.6688C73.6277 54.0449 74.0522 54.3439 74.5244 54.5466C74.9965 54.7494 75.5058 54.8513 76.0196 54.8461C76.5375 54.8426 77.0484 54.7265 77.517 54.506C77.9855 54.2855 78.4004 53.9657 78.7329 53.5689C79.467 52.7714 79.8614 51.7195 79.8324 50.6363C79.8531 49.5433 79.4545 48.4839 78.7186 47.6752C78.3878 47.2826 77.9744 46.9678 77.5078 46.7532C77.0413 46.5386 76.5332 46.4295 76.0196 46.4337C75.5041 46.4307 74.9937 46.5358 74.5214 46.7423C74.0492 46.9488 73.6255 47.252 73.2778 47.6324C72.8954 48.0363 72.5978 48.5128 72.4028 49.0337C72.2079 49.5546 72.1193 50.1092 72.1426 50.6648V50.7148Z" fill="#C4CDDF"/>
<path d="M85.3946 39.5339H87.8865C87.9812 39.5339 88.072 39.5715 88.1389 39.6384C88.2059 39.7053 88.2435 39.7961 88.2435 39.8907V42.1026C88.2435 42.1972 88.2059 42.288 88.1389 42.3549C88.072 42.4218 87.9812 42.4594 87.8865 42.4594H85.3946C85.2999 42.4594 85.2091 42.4218 85.1422 42.3549C85.0752 42.288 85.0376 42.1972 85.0376 42.1026V39.8907C85.0376 39.7961 85.0752 39.7053 85.1422 39.6384C85.2091 39.5715 85.2999 39.5339 85.3946 39.5339ZM85.3946 43.9649H87.8865C87.9812 43.9649 88.072 44.0025 88.1389 44.0694C88.2059 44.1363 88.2435 44.227 88.2435 44.3217V56.9367C88.2435 57.0313 88.2059 57.1221 88.1389 57.189C88.072 57.2559 87.9812 57.2935 87.8865 57.2935H85.3946C85.2999 57.2935 85.2091 57.2559 85.1422 57.189C85.0752 57.1221 85.0376 57.0313 85.0376 56.9367V44.2931C85.0448 44.2035 85.0856 44.12 85.1517 44.0591C85.2179 43.9983 85.3047 43.9646 85.3946 43.9649Z" fill="#C4CDDF"/>
<path d="M100.739 53.0195H103.595C103.653 53.0197 103.711 53.0344 103.762 53.0621C103.814 53.0898 103.857 53.1297 103.89 53.1783C103.922 53.2269 103.942 53.2828 103.948 53.3409C103.954 53.3991 103.945 53.4577 103.923 53.5118C103.416 54.6455 102.624 55.6288 101.624 56.3659C100.258 57.3415 98.5913 57.8048 96.9172 57.6743C95.2431 57.5438 93.6686 56.8279 92.4704 55.6524C91.7995 55.0069 91.2688 54.2304 90.9113 53.3711C90.5539 52.5118 90.3773 51.5882 90.3926 50.6577C90.3707 49.3489 90.7069 48.059 91.365 46.9273C92.0231 45.7955 92.9781 44.865 94.1269 44.236L94.1983 44.2003C95.3493 43.6525 96.6237 43.415 97.895 43.5114C99.1663 43.6078 100.39 44.0347 101.445 44.7498C102.605 45.4987 103.488 46.6063 103.959 47.9035C103.978 47.9579 103.985 48.0164 103.977 48.0737C103.969 48.131 103.947 48.1856 103.913 48.2327C103.88 48.2797 103.835 48.3179 103.783 48.3438C103.731 48.3697 103.674 48.3827 103.616 48.3816H100.76C100.696 48.3791 100.633 48.3592 100.579 48.324C100.525 48.2889 100.481 48.2397 100.453 48.1818C100.183 47.6275 99.7548 47.1656 99.2223 46.8545C98.6898 46.5433 98.077 46.3969 97.4613 46.4337C96.9442 46.4162 96.4293 46.5097 95.9514 46.7078C95.4736 46.906 95.0437 47.2042 94.6909 47.5824C93.9479 48.4212 93.5634 49.5175 93.6199 50.6363C93.6049 51.1835 93.7023 51.728 93.9061 52.2361C94.11 52.7442 94.416 53.2051 94.8052 53.5903C95.1459 53.9549 95.5568 54.2471 96.0132 54.4494C96.4696 54.6517 96.9621 54.7599 97.4613 54.7676C98.069 54.7704 98.6686 54.6285 99.2106 54.3537C99.7274 54.0878 100.154 53.6759 100.439 53.1693C100.473 53.1217 100.518 53.0831 100.57 53.057C100.622 53.0309 100.68 53.018 100.739 53.0195Z" fill="#C4CDDF"/>
<path d="M109.5 52.0848C109.439 52.086 109.379 52.1024 109.326 52.1326C109.273 52.1628 109.229 52.2058 109.197 52.2576C109.165 52.3095 109.146 52.3685 109.143 52.4293C109.14 52.4901 109.152 52.5507 109.178 52.6056C109.471 53.2847 109.964 53.8583 110.592 54.2497C111.22 54.6412 111.952 54.8318 112.691 54.7961C113.28 54.83 113.867 54.699 114.385 54.4179C114.903 54.1368 115.333 53.7168 115.626 53.205C115.654 53.1493 115.696 53.1025 115.749 53.0697C115.802 53.0369 115.863 53.0195 115.926 53.0195H118.517C118.575 53.0195 118.631 53.0333 118.682 53.0598C118.733 53.0862 118.777 53.1245 118.81 53.1714C118.842 53.2182 118.864 53.2724 118.871 53.3291C118.879 53.3859 118.873 53.4437 118.853 53.4975C118.392 54.5674 117.682 55.5117 116.782 56.2517C115.66 57.2081 114.223 57.7163 112.748 57.6788C111.796 57.7134 110.846 57.5463 109.963 57.1885C109.079 56.8306 108.281 56.2901 107.622 55.6024C106.34 54.2988 105.624 52.5425 105.63 50.7148C105.599 49.77 105.762 48.8289 106.108 47.9492C106.454 47.0695 106.977 46.2697 107.643 45.5989C108.292 44.9355 109.071 44.4127 109.931 44.0628C110.79 43.713 111.713 43.5436 112.641 43.5653C113.541 43.555 114.433 43.7324 115.261 44.0862C116.088 44.4401 116.833 44.9625 117.446 45.6203C118.086 46.2561 118.593 47.0137 118.935 47.8483C119.277 48.6829 119.448 49.5775 119.439 50.4793C119.443 50.9282 119.412 51.3768 119.346 51.8208C119.33 51.9039 119.286 51.9789 119.221 52.0325C119.155 52.086 119.073 52.1147 118.989 52.1133L109.5 52.0848ZM109.4 49.5161H115.733C115.787 49.5155 115.84 49.5028 115.888 49.4788C115.936 49.4549 115.978 49.4203 116.011 49.3777C116.044 49.3352 116.067 49.2857 116.078 49.2331C116.089 49.1804 116.088 49.1259 116.076 49.0737C115.915 48.2848 115.47 47.5825 114.825 47.1008C114.18 46.6191 113.379 46.3918 112.577 46.4622C111.783 46.4261 111.001 46.6626 110.36 47.1326C109.72 47.6025 109.26 48.2775 109.057 49.0452C109.04 49.0992 109.036 49.1563 109.046 49.212C109.055 49.2678 109.077 49.3206 109.11 49.3663C109.144 49.412 109.187 49.4493 109.237 49.4753C109.287 49.5013 109.343 49.5153 109.4 49.5161Z" fill="#C4CDDF"/>

</svg>
